<?xml version="1.0" encoding="utf-8"?>
<!-- Generator: Adobe Illustrator 23.0.1, SVG Export Plug-In . SVG Version: 6.00 Build 0)  -->
<svg version="1.1" id="Layer_1" xmlns="http://www.w3.org/2000/svg" xmlns:xlink="http://www.w3.org/1999/xlink" x="0px" y="0px"
	 viewBox="0 0 1000 1000" style="enable-background:new 0 0 1000 1000;" xml:space="preserve">
<style type="text/css">
	.st0{fill:url(#SVGID_1_);}
	.st1{fill:none;stroke:#EEDF93;stroke-width:2.891;stroke-miterlimit:10;}
	.st2{fill:#D2B465;}
	.st3{fill:none;stroke:#000000;stroke-width:5;stroke-miterlimit:10;}
	.st4{fill:url(#SVGID_2_);}
	.st5{fill:none;stroke:#000000;stroke-miterlimit:10;}
	.st6{fill:#B49B34;}
	.st7{fill:none;stroke:#000000;stroke-width:2;stroke-miterlimit:10;}
	.st8{fill:none;stroke:#000000;stroke-width:3;stroke-miterlimit:10;}
</style>
<g>
	<circle cx="500" cy="500" r="384.17"/>
	<g>
		<linearGradient id="SVGID_1_" gradientUnits="userSpaceOnUse" x1="158.3783" y1="280.6872" x2="1320.0449" y2="1026.4485">
			<stop  offset="9.603382e-03" style="stop-color:#FDF5A8"/>
			<stop  offset="0.1183" style="stop-color:#AB7D2C"/>
			<stop  offset="0.2473" style="stop-color:#FDF5A4"/>
			<stop  offset="0.3925" style="stop-color:#FDF19B"/>
			<stop  offset="0.5376" style="stop-color:#DBA74E"/>
			<stop  offset="0.672" style="stop-color:#AB7D2C"/>
			<stop  offset="0.8226" style="stop-color:#FDF5A4"/>
			<stop  offset="0.9409" style="stop-color:#C0842B"/>
		</linearGradient>
		<circle class="st0" cx="500" cy="500" r="366.67"/>
	</g>
	<circle class="st1" cx="500" cy="500" r="366.67"/>
	<g>
		<g>
			<path d="M797.43,573.81C764.31,707.24,643.53,806.43,500,806.43c-168.97,0-306.44-137.47-306.44-306.44S331.03,193.56,500,193.56
				c156.38,0,285.76,117.75,304.18,269.24h6.91c-8.18-69.6-39.27-134.01-89.58-184.32c-59.17-59.17-137.83-91.75-221.51-91.75
				c-83.68,0-162.34,32.58-221.51,91.75S186.74,416.32,186.74,500c0,83.67,32.58,162.34,91.75,221.51
				c59.17,59.17,137.83,91.75,221.51,91.75c83.67,0,162.34-32.58,221.51-91.75c41.36-41.36,69.72-92.24,83.05-147.7H797.43z"/>
		</g>
		<g>
			<path d="M504.21,820.22l-10.24-0.19c-9.32-0.17-18.73-0.75-27.95-1.73l-10.18-1.08l2.15-20.36l10.18,1.07
				c8.64,0.91,17.45,1.46,26.18,1.62l10.24,0.19L504.21,820.22z M522.71,819.46l-2.08-20.37l10.19-1.04
				c8.67-0.89,17.4-2.17,25.94-3.8l10.06-1.93l3.85,20.11l-10.06,1.93c-9.13,1.75-18.46,3.12-27.72,4.06L522.71,819.46z
				 M437.56,814.17l-9.97-2.31c-9.08-2.1-18.16-4.63-27-7.51l-9.73-3.18l6.35-19.47l9.73,3.18c8.27,2.7,16.77,5.06,25.26,7.03
				l9.97,2.31L437.56,814.17z M588.63,807.82l-6.29-19.49l9.74-3.14c8.29-2.68,16.56-5.75,24.58-9.15l9.43-3.99l7.98,18.86
				l-9.43,3.99c-8.57,3.63-17.41,6.92-26.28,9.78L588.63,807.82z M373.62,794.34l-9.27-4.34c-8.42-3.94-16.77-8.31-24.82-12.99
				l-8.85-5.14l10.28-17.71l8.85,5.14c7.54,4.38,15.35,8.47,23.23,12.15l9.27,4.34L373.62,794.34z M650.69,782.65l-10.22-17.74
				l8.87-5.11c7.54-4.35,14.99-9.08,22.14-14.08l8.39-5.87l11.73,16.78l-8.39,5.87c-7.63,5.34-15.59,10.4-23.65,15.04L650.69,782.65
				z M315.25,761.62l-8.17-6.18c-7.42-5.61-14.68-11.62-21.59-17.86l-7.6-6.86l13.73-15.19l7.6,6.86
				c6.47,5.84,13.27,11.47,20.21,16.72l8.17,6.18L315.25,761.62z M706.12,745.11l-13.68-15.24l7.62-6.84
				c6.48-5.82,12.79-11.99,18.74-18.36l7-7.47l14.95,13.99l-7,7.48c-6.36,6.79-13.09,13.39-20.01,19.6L706.12,745.11z
				 M264.93,717.49l-6.71-7.73c-6.1-7.03-11.97-14.41-17.43-21.94l-6.01-8.29l16.57-12.03l6.01,8.29
				c5.12,7.05,10.61,13.96,16.32,20.54l6.71,7.73L264.93,717.49z M752.57,696.92l-16.53-12.08l6.04-8.27
				c5.14-7.03,10.03-14.38,14.53-21.83l5.3-8.76l17.52,10.59l-5.3,8.76c-4.81,7.96-10.04,15.81-15.52,23.32L752.57,696.92z
				 M224.81,663.9l-4.96-8.95c-4.52-8.15-8.72-16.59-12.5-25.09l-4.16-9.36l18.71-8.31l4.16,9.36c3.53,7.95,7.47,15.85,11.7,23.48
				l4.96,8.96L224.81,663.9z M788.02,640.17l-18.68-8.38l4.19-9.34c3.56-7.94,6.81-16.14,9.66-24.36l3.35-9.67l19.35,6.7l-3.35,9.67
				c-3.05,8.79-6.52,17.55-10.32,26.04L788.02,640.17z M196.71,603.1l-2.98-9.8c-2.71-8.9-5.05-18.03-6.97-27.14l-2.11-10.02
				l20.04-4.21l2.11,10.02c1.79,8.53,3.99,17.07,6.52,25.4l2.98,9.79L196.71,603.1z M181.96,537.81l-0.87-10.2
				c-0.78-9.12-1.17-18.41-1.17-27.61l0-10.6h20.48l0,10.56c0,8.66,0.37,17.36,1.1,25.9l0.87,10.2L181.96,537.81z M201.38,473.4
				l-20.32-2.49l1.24-10.16c1.13-9.25,2.69-18.55,4.62-27.63l2.13-10.01l20.03,4.26l-2.13,10.01c-1.81,8.51-3.26,17.21-4.32,25.86
				L201.38,473.4z M795.25,447.73l-2.12-10.02c-1.8-8.53-4.01-17.07-6.55-25.39l-2.99-9.79l19.58-5.98l2.99,9.79
				c2.72,8.89,5.07,18.02,7,27.14l2.12,10.02L795.25,447.73z M213.36,411.91L194,405.23l3.34-9.68c3.03-8.79,6.5-17.56,10.29-26.05
				l4.18-9.35l18.69,8.36l-4.18,9.35c-3.55,7.95-6.79,16.15-9.63,24.37L213.36,411.91z M777.96,387.5l-4.17-9.35
				c-3.55-7.95-7.49-15.85-11.72-23.47l-4.97-8.95l17.9-9.95l4.97,8.95c4.52,8.14,8.74,16.58,12.53,25.08l4.17,9.35L777.96,387.5z
				 M237.93,354.32l-17.54-10.57l5.29-8.77c4.8-7.96,10.01-15.81,15.5-23.34l6.03-8.27l16.55,12.06l-6.03,8.27
				c-5.13,7.04-10.02,14.39-14.51,21.85L237.93,354.32z M748.46,332.2l-6.02-8.28c-5.12-7.04-10.62-13.95-16.35-20.52l-6.72-7.72
				l15.45-13.44l6.72,7.72c6.11,7.02,11.98,14.4,17.46,21.92l6.02,8.28L748.46,332.2z M273.97,303.06L259,289.09l6.99-7.48
				c6.35-6.8,13.08-13.41,19.99-19.63l7.61-6.85l13.7,15.22l-7.61,6.85c-6.48,5.83-12.77,12.01-18.72,18.38L273.97,303.06z
				 M708.12,284.23l-7.61-6.85c-6.47-5.83-13.28-11.45-20.23-16.7l-8.17-6.17l12.33-16.34l8.17,6.17
				c7.43,5.6,14.69,11.6,21.61,17.83l7.61,6.85L708.12,284.23z M319.85,260.36l-11.75-16.77l8.38-5.88
				c7.63-5.35,15.58-10.42,23.63-15.07l8.87-5.12l10.24,17.73l-8.87,5.12c-7.54,4.35-14.98,9.1-22.12,14.11L319.85,260.36z
				 M658.76,245.65l-8.86-5.13c-7.54-4.37-15.36-8.45-23.24-12.13l-9.28-4.33l8.67-18.55l9.28,4.33
				c8.42,3.93,16.78,8.29,24.84,12.96l8.86,5.13L658.76,245.65z M373.58,228.09l-8-18.85l9.42-4c8.57-3.64,17.41-6.94,26.27-9.81
				l9.74-3.16l6.31,19.48l-9.74,3.16c-8.29,2.68-16.56,5.77-24.58,9.18L373.58,228.09z M602.46,218.18l-9.74-3.17
				c-8.28-2.69-16.78-5.05-25.27-7l-9.98-2.3l4.59-19.96l9.98,2.3c9.07,2.09,18.16,4.6,27.01,7.48l9.74,3.17L602.46,218.18z
				 M432.85,207.76l-3.88-20.11l10.05-1.94c9.12-1.76,18.45-3.14,27.72-4.09l10.18-1.05l2.1,20.37l-10.18,1.05
				c-8.67,0.9-17.4,2.19-25.94,3.83L432.85,207.76z M541.66,203.09l-10.18-1.06c-8.64-0.9-17.45-1.44-26.18-1.59l-10.24-0.18
				l0.35-20.47l10.24,0.18c9.32,0.16,18.72,0.73,27.95,1.7l10.18,1.06L541.66,203.09z"/>
		</g>
	</g>
	<path class="st2" d="M877.83,417.81c-0.27-1.25-1.47-2.05-2.72-1.86c-2.44-10.92-5.36-21.73-8.76-32.41
		c1.18-0.46,1.82-1.76,1.42-2.98c-8.51-26.21-19.89-51.59-33.84-75.44c-0.65-1.11-2.05-1.5-3.18-0.92
		c-5.71-9.63-11.83-19.01-18.36-28.11c0.98-0.8,1.18-2.23,0.42-3.27c-16.22-22.3-34.88-42.92-55.47-61.3
		c-0.96-0.86-2.42-0.8-3.32,0.12c-8.42-7.43-17.12-14.48-26.1-21.11c0.68-1.06,0.44-2.49-0.6-3.24
		c-22.33-16.26-46.42-30.13-71.62-41.23c-1.19-0.52-2.56-0.01-3.13,1.14c-1-0.43-1.99-0.88-2.99-1.31
		c-9.34-3.95-18.8-7.51-28.36-10.69c0.33-1.23-0.35-2.51-1.57-2.91c-26.18-8.51-53.4-14.22-80.9-16.96
		c-1.28-0.13-2.41,0.77-2.61,2.03c-11.09-1.03-22.27-1.58-33.52-1.66c-0.06-1.27-1.11-2.29-2.4-2.29H500
		c-27.63,0-55.2,2.93-81.96,8.71c-1.25,0.27-2.05,1.47-1.86,2.72c-10.92,2.43-21.73,5.34-32.42,8.74c-0.46-1.18-1.76-1.82-2.98-1.43
		c-26.22,8.49-51.61,19.86-75.46,33.79c-1.11,0.65-1.5,2.05-0.92,3.18c-9.64,5.7-19.02,11.82-28.12,18.35
		c-0.8-0.98-2.23-1.18-3.27-0.43c-22.31,16.21-42.94,34.86-61.33,55.43c-0.86,0.96-0.8,2.42,0.11,3.32
		c-7.44,8.41-14.49,17.11-21.12,26.09c-1.07-0.68-2.49-0.44-3.24,0.6c-16.27,22.32-30.16,46.41-41.28,71.6
		c-0.52,1.19-0.01,2.56,1.14,3.13c-0.46,1.07-0.95,2.13-1.4,3.2c-3.92,9.27-7.46,18.65-10.62,28.14c-1.23-0.33-2.51,0.35-2.91,1.57
		c-8.53,26.18-14.25,53.39-17.01,80.89c-0.13,1.28,0.77,2.41,2.03,2.61c-1.04,11.09-1.6,22.27-1.68,33.52
		c-1.27,0.06-2.29,1.11-2.29,2.4V500c0,27.55,2.91,55.05,8.66,81.73c0.24,1.13,1.24,1.9,2.35,1.9c0.12,0,0.24-0.02,0.36-0.04
		c2.42,10.92,5.33,21.74,8.72,32.42c-1.18,0.46-1.82,1.76-1.43,2.98c8.48,26.22,19.83,51.62,33.75,75.48
		c0.45,0.77,1.25,1.2,2.08,1.2c0.37,0,0.74-0.1,1.09-0.28c5.7,9.64,11.8,19.03,18.33,28.14c-0.98,0.8-1.18,2.23-0.43,3.27
		c16.19,22.32,34.83,42.96,55.4,61.36c0.46,0.41,1.03,0.61,1.61,0.61c0.63,0,1.24-0.25,1.71-0.73c8.41,7.44,17.1,14.5,26.08,21.14
		c-0.68,1.06-0.44,2.49,0.6,3.24c22.31,16.29,46.39,30.19,71.57,41.32c0.32,0.14,0.65,0.21,0.97,0.21c0.89,0,1.73-0.51,2.15-1.35
		c1.14,0.5,2.27,1.01,3.42,1.49c9.2,3.89,18.51,7.4,27.92,10.55c-0.33,1.23,0.35,2.51,1.57,2.91c26.17,8.55,53.38,14.29,80.88,17.06
		c0.08,0.01,0.16,0.01,0.24,0.01c1.18,0,2.18-0.86,2.37-2.04c11.09,1.04,22.27,1.61,33.52,1.7c0.06,1.27,1.11,2.29,2.4,2.29H500
		c27.47,0,54.89-2.9,81.51-8.61c1.25-0.27,2.06-1.47,1.87-2.72c10.92-2.42,21.74-5.32,32.42-8.7c0.36,0.95,1.27,1.55,2.24,1.55
		c0.24,0,0.49-0.04,0.74-0.12c26.22-8.46,51.63-19.8,75.5-33.7c1.11-0.65,1.5-2.05,0.92-3.18c9.65-5.69,19.04-11.79,28.15-18.31
		c0.47,0.57,1.15,0.89,1.85,0.89c0.49,0,0.98-0.15,1.41-0.46c22.32-16.18,42.98-34.8,61.4-55.36c0.86-0.96,0.8-2.42-0.11-3.32
		c7.45-8.41,14.51-17.09,21.16-26.06c0.4,0.26,0.85,0.39,1.3,0.39c0.74,0,1.48-0.34,1.95-0.99c16.3-22.3,30.22-46.37,41.36-71.55
		c0.52-1.19,0.01-2.56-1.14-3.13c0.53-1.21,1.07-2.41,1.58-3.62c3.86-9.13,7.35-18.36,10.47-27.7c0.21,0.06,0.41,0.09,0.62,0.09
		c1.01,0,1.96-0.65,2.29-1.66c8.56-26.17,14.32-53.38,17.1-80.87c0.13-1.28-0.77-2.42-2.02-2.61c1.05-11.09,1.62-22.27,1.72-33.52
		c1.27-0.06,2.29-1.1,2.29-2.39l0-0.93C886.58,472.3,883.64,444.64,877.83,417.81z M500,881.47
		c-210.34,0-381.47-171.13-381.47-381.47S289.66,118.53,500,118.53S881.47,289.66,881.47,500S710.34,881.47,500,881.47z"/>
	<path class="st3" d="M878.17,470.38h-73.92h-9.29l-7.19-9.19l-1.28-4.41C765.63,317.28,645.31,210.3,500,210.3
		c-14.93,0-29.6,1.13-43.92,3.31C317.06,234.75,210.5,354.71,210.3,499.59c-0.22,159.29,129.37,289.55,288.66,290.11
		c133.74,0.47,246.49-89.69,280.35-212.55l11.53-11.63h82.33"/>
	<path class="st3" d="M500,223.23c17.18,0,33.99,1.56,50.3,4.56c115.8,21.26,206.39,114.6,223.54,231.78l1,10.15l11.74,14.08h92.11"
		/>
	<path class="st3" d="M454.65,226.93C323.37,248.57,223.23,362.59,223.23,500c0,21.3,2.41,42.03,6.96,61.94
		C258.32,684.98,368.44,776.77,500,776.77c126.03,0,232.39-84.24,265.83-199.48l1.46-6.4l19.28-19.85h89.6"/>
	<path class="st3" d="M878.72,496.44h-92.15h-7.7l-15.41-15.41l-3.53-26.56c-18.64-107.14-101.91-192.09-208.17-213.23
		c-16.74-3.33-34.04-5.07-51.76-5.07"/>
	<path class="st3" d="M454.37,240.09C330.4,261.7,236.16,369.85,236.16,500c0,20.3,2.29,40.06,6.63,59.05
		C269.61,676.33,374.58,763.84,500,763.84c118.87,0,219.39-78.62,252.38-186.69"/>
	<path class="st3" d="M455.3,253.12l-2.48,0.4C336.8,275.59,249.09,377.55,249.09,500c0,19.3,2.18,38.1,6.31,56.15
		C280.9,667.69,380.73,750.91,500,750.91c121.8,0,223.33-86.78,246.12-201.89l20.93-21.93h109.63"/>
	<path class="st3" d="M500,249.09c17.4,0,34.38,1.77,50.78,5.14c92.81,19.08,166.92,89.4,191.45,180.1"/>
	<path class="st3" d="M452.82,279.9C351.18,301.58,274.95,391.89,274.95,500c0,17.31,1.95,34.17,5.66,50.36
		C303.47,650.41,393.02,725.05,500,725.05c124.29,0,225.05-100.76,225.05-225.05c0-107.06-74.76-196.66-174.92-219.45
		c-16.12-3.67-32.9-5.6-50.13-5.6"/>
	<path class="st3" d="M293.21,547.46c-2.18-9.52-3.71-19.29-4.56-29.26H399.5v20.57"/>
	<path class="st3" d="M452.82,293.14C358.37,314.59,287.88,399.06,287.88,500h26.88v8.12h64.54v-25.68h15.61"/>
	<path class="st3" d="M293.21,547.46c21.56,94.3,105.96,164.66,206.79,164.66c117.15,0,212.12-94.97,212.12-212.12
		c0-99.62-68.68-183.21-161.27-205.99c-16.29-4.01-33.32-6.13-50.85-6.13"/>
	<path class="st3" d="M452.82,306.43c-72.55,17.62-129.57,74.97-146.71,147.71"/>
	<path class="st3" d="M321.95,589.41C354.71,654.52,422.14,699.19,500,699.19c110.01,0,199.19-89.18,199.19-199.19
		c0-92.71-63.33-170.62-149.1-192.84c-16.01-4.15-32.8-6.35-50.1-6.35"/>
	<path class="st3" d="M452.82,319.76c-73.89,19.29-129.91,82.82-138.06,160.59"/>
	<path class="st3" d="M324.32,562.04c25.56,72.37,94.56,124.23,175.68,124.23c102.87,0,186.27-83.39,186.27-186.27
		c0-84.95-56.86-156.61-134.6-179.01c-16.4-4.73-33.74-7.26-51.66-7.26"/>
	<path class="st3" d="M396.84,472.72h-26.96V500h-43.21c0-95.73,77.61-173.34,173.34-173.34S673.34,404.27,673.34,500
		S595.73,673.34,500,673.34c-82.4,0-151.37-57.5-168.98-134.56h17.29l14.11-14.11h26.26v10.32"/>
	<path d="M490.3,217.56l-28.54,2.37c-1.17,0.1-2.03,1.12-1.94,2.29l0.56,6.76c0.1,1.17,1.12,2.03,2.29,1.94l28.54-2.37
		c1.17-0.1,2.03-1.12,1.94-2.29l-0.56-6.76C492.49,218.33,491.47,217.46,490.3,217.56z"/>
	<path d="M483.93,220.1l-20.58,1.71c-0.84,0.07-1.47,0.81-1.4,1.65l0.4,4.88c0.07,0.84,0.81,1.47,1.65,1.4l20.58-1.71
		c0.84-0.07,1.47-0.81,1.4-1.65l-0.4-4.88C485.51,220.66,484.77,220.03,483.93,220.1z"/>
	<path d="M474.92,219.94l-20.49,2.57c-0.84,0.11-1.43,0.87-1.33,1.71l0.61,4.85c0.11,0.84,0.87,1.43,1.71,1.33l20.49-2.57
		c0.84-0.11,1.43-0.87,1.33-1.71l-0.61-4.85C476.52,220.43,475.75,219.83,474.92,219.94z"/>
	<path d="M498.63,218.98l-20.65,0.56c-0.84,0.02-1.51,0.73-1.49,1.57l0.13,4.89c0.02,0.84,0.73,1.51,1.57,1.49l20.65-0.56
		c0.84-0.02,1.51-0.73,1.49-1.57l-0.13-4.89C500.17,219.62,499.47,218.95,498.63,218.98z"/>
	<path d="M490.08,231.02l-28.54,2.37c-1.17,0.1-2.03,1.12-1.94,2.29l0.56,6.76c0.1,1.17,1.12,2.03,2.29,1.94l28.54-2.37
		c1.17-0.1,2.03-1.12,1.94-2.29l-0.56-6.76C492.27,231.79,491.25,230.92,490.08,231.02z"/>
	<path d="M474.7,233.4l-20.49,2.57c-0.84,0.11-1.43,0.87-1.33,1.71l0.61,4.85c0.11,0.84,0.87,1.43,1.71,1.33l20.49-2.57
		c0.84-0.11,1.43-0.87,1.33-1.71l-0.61-4.85C476.3,233.89,475.53,233.29,474.7,233.4z"/>
	<path d="M498.41,232.44L477.76,233c-0.84,0.02-1.51,0.73-1.49,1.57l0.13,4.89c0.02,0.84,0.73,1.51,1.57,1.49l20.65-0.56
		c0.84-0.02,1.51-0.73,1.49-1.57l-0.13-4.89C499.95,233.08,499.25,232.41,498.41,232.44z"/>
	<path d="M489.86,244.48l-28.54,2.37c-1.17,0.1-2.03,1.12-1.94,2.29l0.56,6.76c0.1,1.17,1.12,2.03,2.29,1.94l28.54-2.37
		c1.17-0.1,2.03-1.12,1.94-2.29l-0.56-6.76C492.05,245.25,491.03,244.38,489.86,244.48z"/>
	<path class="st3" d="M452.82,266.69c-42.9,8.63-83,29.33-115.01,59.15c-47.67,44.41-75.79,109-75.79,174.16
		c0,18.31,2.07,36.13,5.98,53.26c24.19,105.79,118.87,184.73,232,184.73c121.42,0,221.6-90.93,236.16-208.41l22.06-19.06h119.5"/>
	<path class="st3" d="M498.56,317.86c-16.83-1.53-32.73-0.65-47.28,2.18"/>
	<path class="st3" d="M452.82,266.69c0,0,31.34-5.2,47.18-4.68c17.19,0.56,33.97,1.82,50.13,5.29
		c76.02,16.3,138.57,68.9,168.61,138.78"/>
	<path d="M474.48,246.86l-20.49,2.57c-0.84,0.11-1.43,0.87-1.33,1.71l0.61,4.85c0.11,0.84,0.87,1.43,1.71,1.33l20.49-2.57
		c0.84-0.11,1.43-0.87,1.33-1.71l-0.61-4.85C476.08,247.35,475.31,246.75,474.48,246.86z"/>
	<path d="M498.19,245.9l-20.65,0.56c-0.84,0.02-1.51,0.73-1.49,1.57l0.13,4.89c0.02,0.84,0.73,1.51,1.57,1.49l20.65-0.56
		c0.84-0.02,1.51-0.73,1.49-1.57l-0.13-4.89C499.73,246.54,499.03,245.87,498.19,245.9z"/>
	<rect x="406.29" y="685.8" width="9.76" height="11.36"/>
	<rect x="406.29" y="671.72" width="9.76" height="11.36"/>
	<rect x="406.29" y="699.89" width="9.76" height="11.36"/>
	<rect x="406.29" y="713.97" width="9.76" height="11.36"/>
	<rect x="540.04" y="686.8" width="9.76" height="11.36"/>
	<rect x="540.04" y="672.72" width="9.76" height="11.36"/>
	<rect x="540.04" y="700.89" width="9.76" height="11.36"/>
	<rect x="540.04" y="714.97" width="9.76" height="11.36"/>
	<path d="M415.84,734.86l-0.04-71.19l-86.97-0.25l9.5-57.19l2.58,0.04c0.14,0,14.38,0.23,23.49,0.23c0.01,0,0.02,0,0.03,0l-0.23-0.2
		l7.86-0.01c9.42-0.02,12.34-6.16,13.13-11.41v-112.4l-0.01-79.89c-2.1-10.65-9.39-16.06-21.66-16.07l-6.71,0l0.22-0.25
		c-0.33,0-0.68,0-1.04,0c-9.09,0-23.41,0.27-23.56,0.27l-3.06,0.06l-0.01-54.5h86.46l0.01-67.81l48.85,0.01l-0.01,67.78h28.23
		l0.01-67.8h48.89l0.01,67.8c17.09,0.02,33.29,0.29,49.74,5.3c0.28,0.09,0.56,0.18,0.83,0.28c11,3.63,20.46,9.01,28.03,15.98
		c13.95,12.82,23.23,33.35,25.46,56.33c3.06,31.15-6.86,54.64-29.49,69.81c-0.71,0.48-1.44,0.94-2.16,1.39
		c0.52,0.24,1.04,0.48,1.56,0.73l0.22,0.1c9.54,4.56,18.23,10.56,25.81,17.83c1.21,1.16,2.36,2.33,3.42,3.46
		c16.49,17.45,25.57,40.08,25.57,63.7c0,0.79-0.01,1.57-0.03,2.36c-0.39,14.58-4.1,28.47-11.05,41.26l0,0
		c-0.21,0.4-0.42,0.79-0.63,1.18c0,0-0.14,0.27-0.14,0.27c-0.3,0.54-0.6,1.07-0.91,1.59l-0.24,0.41l-0.17,0.33l-0.08,0.08
		c-0.4,0.67-0.81,1.32-1.22,1.97c-4.54,7.09-10.19,13.4-16.82,18.76c-17.5,14.17-42.1,22.65-77.43,26.68
		c-6.38,0.73-13.03,1.3-20.27,1.76l-0.03,71.23h-48.88l0.01-70.1c-9.44-0.01-18.93-0.1-28.27-0.27l0.01,70.37L415.84,734.86z
		 M505.25,607.07c3.26,0,6.65,0.09,9.94,0.18c3.36,0.09,6.83,0.18,10.24,0.18c10.75,0,23.1-0.85,33.19-7.17
		c3.58-2.26,6.84-5.01,9.68-8.17c3.4-3.77,6.13-8.02,8.13-12.65c1.05-2.44,1.85-4.88,2.39-7.25c0.58-2.53,0.88-5.03,0.89-7.44
		c0.02-4.26-0.82-8.66-2.48-13.08c-6.35-16.88-23.78-28.67-42.39-28.67h-69v1.2h-0.14l-0.02,82.44h0.16v0.44H505.25z M494.52,469.07
		c7.38,0,14.84,0.11,22.07,0.22l1.7,0.03c0.41,0.01,0.82,0.01,1.24,0.01c10.34,0,19.09-2.03,26-6.04
		c7.33-4.25,13.15-11.02,16.38-19.06c5.27-13.07,3.07-28.7-5.62-39.81c-5.97-7.65-15.08-13.05-25-14.83
		c-2.03-0.36-4.18-0.59-6.59-0.71c-1.28-0.06-2.64-0.09-4.16-0.09c-2.35,0-4.76,0.07-7.09,0.14c-2.34,0.07-4.75,0.14-7.1,0.14
		h-40.52v80H494.52z"/>
	<g>
		<linearGradient id="SVGID_2_" gradientUnits="userSpaceOnUse" x1="325.2938" y1="499.5709" x2="673.8295" y2="499.5709">
			<stop  offset="9.603382e-03" style="stop-color:#FDF5A8"/>
			<stop  offset="0.1183" style="stop-color:#AB7D2C"/>
			<stop  offset="0.2473" style="stop-color:#FDF5A4"/>
			<stop  offset="0.3925" style="stop-color:#FDF19B"/>
			<stop  offset="0.5376" style="stop-color:#DBA74E"/>
			<stop  offset="0.672" style="stop-color:#AB7D2C"/>
			<stop  offset="0.8226" style="stop-color:#FDF5A4"/>
			<stop  offset="0.9409" style="stop-color:#C0842B"/>
		</linearGradient>
		<path class="st4" d="M538.8,267.27l0.01,67.8c0.05,0,0.09,0,0.14,0c17.62,0,34.76,0.01,51.73,5.17c0.23,0.07,0.46,0.15,0.68,0.23
			c9.92,3.27,19.35,8.3,27.03,15.37c14.95,13.74,22.58,34.55,24.51,54.41c3.2,32.62-8.43,53.79-28.17,67.03
			c-2.31,1.54-4.73,2.99-7.25,4.31c2.4,0.91,4.74,1.92,7.03,3.01c0.07,0.03,0.15,0.07,0.22,0.1c9.31,4.45,17.75,10.31,25.03,17.29
			c1.13,1.09,2.24,2.21,3.31,3.35c15.4,16.3,24.76,37.93,24.76,61.65c0,0.76-0.01,1.52-0.03,2.28
			c-0.38,14.36-4.18,27.92-10.69,39.91c0.12-0.23,0.24-0.47,0.36-0.71c0.08-0.16,0.16-0.31,0.24-0.47
			c-0.08,0.16-0.16,0.31-0.24,0.47c-0.32,0.63-0.65,1.26-0.99,1.88c-0.04,0.08-0.09,0.16-0.13,0.24c-0.38,0.68-0.77,1.35-1.15,2.01
			c-0.01,0.01-0.01,0.02-0.02,0.03c-0.44,0.75-0.9,1.48-1.36,2.21c-4.46,6.97-9.88,12.94-16.17,18.03
			c-18.51,14.99-44.57,22.46-75.88,26.03c-7.37,0.84-15.02,1.46-22.93,1.91l-0.03,71.06h-42.88l0.01-70.1c-0.5,0-1,0-1.5,0
			c-10.63,0-21.52-0.1-32.77-0.33l0.01,70.43l-42.84-0.01l-0.04-71.18l-86.43-0.25l8.5-51.16c0,0,14.3,0.23,23.54,0.23
			c4.53,0,7.84-0.05,7.66-0.22c12.14-0.02,15.36-8.74,16.12-14.19v-1V482.47l-0.01-80.18c-1.63-8.69-7.3-18.77-24.66-18.78
			c0.17-0.19-3.08-0.25-7.54-0.25c-9.22,0-23.61,0.27-23.61,0.27l-0.01-45.75v-2.69h86.46l0.01-67.81l42.85,0.01l-0.01,67.78h34.23
			l0.01-67.8H538.8 M462.83,472.07h31.69c7.92,0,15.81,0.13,23.72,0.25c0.43,0.01,0.85,0.01,1.28,0.01c9.5,0,19.2-1.63,27.51-6.44
			c7.95-4.61,14.23-12.01,17.66-20.54c5.64-13.98,3.25-30.89-6.04-42.78c-6.56-8.4-16.37-14.06-26.83-15.94
			c-2.29-0.41-4.62-0.64-6.98-0.75c-1.42-0.07-2.86-0.09-4.29-0.09c-4.76,0-9.55,0.28-14.2,0.28h-43.52V472.07 M462.67,609.63h0.16
			v0.44h42.42c6.52,0,13.35,0.36,20.18,0.36c12.24,0,24.45-1.16,34.78-7.63c3.82-2.41,7.3-5.35,10.32-8.71
			c3.59-3.98,6.53-8.55,8.65-13.47c1.08-2.51,1.96-5.12,2.56-7.78c0.61-2.66,0.95-5.37,0.96-8.09c0.02-4.83-0.97-9.63-2.67-14.15
			c-6.97-18.52-25.6-30.61-45.2-30.61h-72v1.2h-0.14l-0.02,72.9V609.63 M544.8,261.27h-6h-42.89h-6l0,6l-0.01,61.8h-22.23
			l0.01-61.78l0-6l-6,0l-42.85-0.01l-6,0l0,6l-0.01,61.81h-80.46h-6v6v2.69l0.01,45.75l0,6.11l6.11-0.12c0.12,0,9.45-0.18,17.8-0.25
			l-0.2,0.22l13.43,0.01c10.82,0.01,16.77,4.26,18.66,13.37l0.01,79.59v111.62v0.56c-1.24,7.72-6.36,8.63-10.13,8.63l-15.71,0.03
			l0.17,0.15c-7.7-0.06-15.45-0.18-15.55-0.19l-5.17-0.08l-0.85,5.1l-8.5,51.16l-1.16,6.96l7.06,0.02l80.45,0.23l0.04,65.2l0,6l6,0
			l42.84,0.01l6,0l0-6l-0.01-64.32c7.4,0.12,14.76,0.19,22.27,0.21l-0.01,64.1l0,6h6h42.88h6l0-6l0.03-65.43
			c6.22-0.43,12.02-0.95,17.61-1.59c35.91-4.1,61.01-12.78,78.98-27.33c6.88-5.56,12.75-12.11,17.45-19.46
			c0.36-0.57,0.72-1.13,1.07-1.72l0.16-0.16l0.36-0.71l0.18-0.31c0.32-0.55,0.64-1.1,0.95-1.66l0.07-0.12l0.02-0.04
			c0.04-0.06,0.07-0.13,0.1-0.19c0.2-0.37,0.41-0.75,0.6-1.13l0,0c7.18-13.22,11.02-27.55,11.41-42.61
			c0.02-0.81,0.03-1.63,0.03-2.44c0-24.39-9.38-47.75-26.4-65.77c-1.09-1.16-2.27-2.36-3.51-3.55
			c-7.04-6.75-14.99-12.43-23.67-16.92c22.07-15.87,31.69-39.77,28.62-71.08c-1.35-13.92-6.59-40.01-26.42-58.24
			c-7.86-7.24-17.66-12.83-29.13-16.62c-0.29-0.1-0.59-0.21-0.9-0.3c-15.86-4.83-31.94-5.36-47.62-5.42l-0.01-61.81L544.8,261.27
			L544.8,261.27z M468.83,392.07h37.52c2.4,0,4.84-0.07,7.19-0.14c2.31-0.07,4.7-0.14,7-0.14c1.47,0,2.78,0.03,4.01,0.09
			c2.28,0.11,4.31,0.32,6.21,0.66c9.19,1.65,17.64,6.66,23.16,13.73c7.92,10.13,10.01,24.94,5.2,36.84
			c-2.99,7.43-8.35,13.68-15.11,17.59c-6.45,3.74-14.69,5.63-24.5,5.63c-0.4,0-0.79,0-1.19-0.01l-1.74-0.03
			c-7.22-0.11-14.69-0.22-22.07-0.22h-25.69V392.07L468.83,392.07z M468.83,525.99h66c17.39,0,33.66,10.99,39.58,26.72
			c1.53,4.07,2.3,8.12,2.29,12.01c-0.01,2.19-0.28,4.47-0.81,6.77c-0.5,2.21-1.25,4.48-2.22,6.75c-1.86,4.32-4.42,8.3-7.59,11.82
			c-2.67,2.97-5.72,5.54-9.07,7.65c-9.43,5.91-21.26,6.7-31.58,6.7c-3.37,0-6.82-0.09-10.16-0.18c-3.3-0.09-6.71-0.18-10.02-0.18
			h-36.42v-0.44h-0.16v-9.54l0.02-66.9h0.14V525.99L468.83,525.99z"/>
	</g>
	<rect x="465.32" y="393.9" width="23.17" height="6.73"/>
	<rect x="465.32" y="406.3" width="23.17" height="6.73"/>
	
		<rect x="458.4" y="434.56" transform="matrix(-1.836970e-16 1 -1 -1.836970e-16 918.7905 -34.7332)" width="36.71" height="14.93"/>
	<polyline class="st5" points="487.79,397.27 520.07,397.27 520.07,409.66 541.65,409.66 	"/>
	<circle cx="543.9" cy="409.66" r="3.57"/>
	<circle cx="543.9" cy="420.78" r="3.57"/>
	<rect x="465.32" y="425.18" width="4.81" height="2.1"/>
	<rect x="465.32" y="429.06" width="4.81" height="2.1"/>
	<rect x="465.32" y="432.94" width="4.81" height="2.1"/>
	<rect x="465.32" y="436.83" width="4.81" height="2.1"/>
	<rect x="465.32" y="440.71" width="4.81" height="2.1"/>
	<rect x="465.32" y="444.59" width="4.81" height="2.1"/>
	<rect x="465.32" y="448.48" width="4.81" height="2.1"/>
	<rect x="465.32" y="452.36" width="4.81" height="2.1"/>
	<rect x="465.32" y="456.24" width="4.81" height="2.1"/>
	<rect x="483.39" y="425.18" transform="matrix(-1 -4.500235e-11 4.500235e-11 -1 971.5936 852.4547)" width="4.81" height="2.1"/>
	<rect x="483.39" y="429.06" transform="matrix(-1 -4.500235e-11 4.500235e-11 -1 971.5936 860.2213)" width="4.81" height="2.1"/>
	<rect x="483.39" y="432.94" transform="matrix(-1 -4.500235e-11 4.500235e-11 -1 971.5936 867.9879)" width="4.81" height="2.1"/>
	<rect x="483.39" y="436.83" transform="matrix(-1 -4.500235e-11 4.500235e-11 -1 971.5936 875.7546)" width="4.81" height="2.1"/>
	<rect x="483.39" y="440.71" transform="matrix(-1 -4.500235e-11 4.500235e-11 -1 971.5936 883.5212)" width="4.81" height="2.1"/>
	<rect x="483.39" y="444.59" width="4.81" height="2.1"/>
	<rect x="483.39" y="448.48" transform="matrix(-1 -4.500235e-11 4.500235e-11 -1 971.5936 899.0544)" width="4.81" height="2.1"/>
	<rect x="483.39" y="452.36" transform="matrix(-1 -4.500235e-11 4.500235e-11 -1 971.5936 906.821)" width="4.81" height="2.1"/>
	<rect x="483.39" y="456.24" transform="matrix(-1 -4.500235e-11 4.500235e-11 -1 971.5936 914.5876)" width="4.81" height="2.1"/>
	<polyline class="st5" points="487.49,449.53 502.66,449.53 502.66,481.32 	"/>
	<polyline class="st5" points="487.79,453.41 500,453.41 500,478.96 	"/>
	<polyline class="st5" points="487.79,457.29 497.45,457.29 497.45,488.06 	"/>
	<polyline class="st5" points="487.49,441.76 543.35,441.76 543.9,441.76 543.9,420.78 514.72,420.78 514.72,409.66 484.23,409.66 	
		"/>
	<polygon points="509.89,419.32 500.69,419.32 496.09,427.28 500.69,435.24 509.89,435.24 514.49,427.28 	"/>
	<g>
		<rect x="514.75" y="446.7" width="7.41" height="7.41"/>
	</g>
	<g>
		<rect x="525.17" y="446.7" width="7.41" height="7.41"/>
	</g>
	<g>
		<rect x="514.75" y="457.14" width="7.41" height="7.41"/>
	</g>
	<g>
		<rect x="525.17" y="457.14" width="7.41" height="7.41"/>
	</g>
	<polygon points="477.1,276.54 468.82,276.54 464.68,283.72 468.82,290.89 477.1,290.89 481.24,283.72 	"/>
	<polygon points="487.63,276.54 479.35,276.54 475.21,283.72 479.35,290.89 487.63,290.89 491.77,283.72 	"/>
	<polygon points="477.1,297.64 468.82,297.64 464.68,304.81 468.82,311.98 477.1,311.98 481.24,304.81 	"/>
	<polygon points="487.63,297.64 479.35,297.64 475.21,304.81 479.35,311.98 487.63,311.98 491.77,304.81 	"/>
	<line class="st5" x1="470.96" y1="285.39" x2="470.96" y2="301.44"/>
	<line class="st5" x1="475.1" y1="286.89" x2="475.1" y2="306.08"/>
	<line class="st5" x1="481.17" y1="285.39" x2="481.17" y2="301.44"/>
	<line class="st5" x1="485.31" y1="286.89" x2="485.31" y2="306.08"/>
	<line class="st3" x1="466.37" y1="283.72" x2="452.82" y2="283.72"/>
	<line class="st3" x1="498.55" y1="283.72" x2="485" y2="283.72"/>
	<line class="st3" x1="466.37" y1="304.81" x2="452.82" y2="304.81"/>
	<line class="st3" x1="498.55" y1="304.81" x2="485" y2="304.81"/>
	<line class="st3" x1="500" y1="249.09" x2="496.95" y2="249.09"/>
	<g>
		<polygon points="308.93,451.02 304.82,450.14 302,453.25 303.29,457.25 307.4,458.13 310.22,455.02 		"/>
	</g>
	<g>
		<polygon points="317.13,476.89 312.94,476.56 310.57,480.03 312.38,483.82 316.57,484.14 318.95,480.68 		"/>
	</g>
	<g>
		<polygon points="324.96,556.48 320.96,557.77 320.07,561.88 323.19,564.69 327.19,563.4 328.07,559.3 		"/>
	</g>
	<g>
		<polygon points="321.94,582.76 317.94,584.05 317.06,588.16 320.18,590.97 324.18,589.68 325.06,585.58 		"/>
	</g>
	<rect x="476.91" y="532.83" width="2.81" height="38.05"/>
	<rect x="483.6" y="532.83" width="2.81" height="38.05"/>
	<rect x="490.28" y="532.83" width="2.81" height="38.05"/>
	<g>
		<rect x="496.78" y="538.18" width="6.44" height="6.44"/>
		<rect x="496.78" y="548.21" width="6.44" height="6.44"/>
		<rect x="496.78" y="558.24" width="6.44" height="6.44"/>
	</g>
	<polygon points="539.57,570.14 545.84,581.01 552.12,591.88 539.57,591.88 527.02,591.88 533.29,581.01 	"/>
	<polyline class="st5" points="539.57,575.4 539.57,556.83 592.22,556.83 	"/>
	<polyline class="st5" points="532.87,586.03 516.37,602.53 439.97,602.53 	"/>
	<polyline class="st5" points="547.56,588.9 559.83,597.35 559.83,611.62 	"/>
	<line class="st5" x1="460.38" y1="597.35" x2="479.19" y2="597.35"/>
	<line class="st5" x1="460.38" y1="594.43" x2="489.19" y2="594.43"/>
	<line class="st5" x1="460.38" y1="591.51" x2="499.19" y2="591.51"/>
	<line class="st5" x1="460.38" y1="588.6" x2="509.19" y2="588.6"/>
	<g>
		<circle cx="479.19" cy="597.35" r="0.91"/>
	</g>
	<g>
		<circle cx="489.19" cy="594.28" r="0.91"/>
	</g>
	<g>
		<circle cx="499.19" cy="591.51" r="0.91"/>
	</g>
	<g>
		<circle cx="509.19" cy="588.6" r="0.91"/>
	</g>
	<rect x="517.13" y="535.85" width="42.7" height="4.98"/>
	<g>
		<rect x="519.82" y="532.83" width="2.8" height="4.55"/>
		<rect x="524.21" y="532.83" width="2.8" height="4.55"/>
		<rect x="528.61" y="532.83" width="2.8" height="4.55"/>
		<rect x="533" y="532.83" width="2.8" height="4.55"/>
		<rect x="537.4" y="532.83" width="2.8" height="4.55"/>
		<rect x="541.79" y="532.83" width="2.8" height="4.55"/>
		<rect x="546.19" y="532.83" width="2.8" height="4.55"/>
		<rect x="550.58" y="532.83" width="2.8" height="4.55"/>
		<rect x="554.98" y="532.83" width="2.8" height="4.55"/>
	</g>
	<g>
		<rect x="519.82" y="539.22" width="2.8" height="4.55"/>
		<rect x="524.21" y="539.22" width="2.8" height="4.55"/>
		<rect x="528.61" y="539.22" width="2.8" height="4.55"/>
		<rect x="533" y="539.22" width="2.8" height="4.55"/>
		<rect x="537.4" y="539.22" width="2.8" height="4.55"/>
		<rect x="541.79" y="539.22" width="2.8" height="4.55"/>
		<rect x="546.19" y="539.22" width="2.8" height="4.55"/>
		<rect x="550.58" y="539.22" width="2.8" height="4.55"/>
		<rect x="554.98" y="539.22" width="2.8" height="4.55"/>
	</g>
	<g>
		<circle cx="521.22" cy="544.12" r="1.89"/>
	</g>
	<g>
		<circle cx="525.61" cy="544.12" r="1.89"/>
	</g>
	<g>
		<circle cx="530.01" cy="544.12" r="1.89"/>
	</g>
	<g>
		<circle cx="534.4" cy="544.12" r="1.89"/>
	</g>
	<g>
		<circle cx="538.8" cy="544.12" r="1.89"/>
	</g>
	<g>
		<circle cx="543.19" cy="544.12" r="1.89"/>
	</g>
	<g>
		<circle cx="547.59" cy="544.12" r="1.89"/>
	</g>
	<g>
		<circle cx="551.98" cy="544.12" r="1.89"/>
	</g>
	<g>
		<circle cx="556.38" cy="544.12" r="1.89"/>
	</g>
	<polyline class="st5" points="521.22,532.83 521.22,522.98 500.09,522.98 500.09,541.41 	"/>
	<line class="st5" x1="525.61" y1="533.71" x2="525.61" y2="514.71"/>
	<line class="st5" x1="530.01" y1="533.71" x2="530.01" y2="514.71"/>
	<line class="st5" x1="534.4" y1="533.71" x2="534.4" y2="514.71"/>
	<line class="st5" x1="538.8" y1="533.71" x2="538.8" y2="514.71"/>
	<line class="st5" x1="543.19" y1="533.71" x2="543.19" y2="514.71"/>
	<line class="st5" x1="547.59" y1="533.71" x2="547.59" y2="514.71"/>
	<line class="st5" x1="551.98" y1="533.71" x2="551.98" y2="514.71"/>
	<line class="st5" x1="556.38" y1="533.71" x2="556.38" y2="514.71"/>
	<path d="M529.82,549.02h-18.58c-2.62,0-4.77,2.15-4.77,4.77v18.58c0,2.62,2.15,4.77,4.77,4.77h18.58c2.62,0,4.77-2.15,4.77-4.77
		v-18.58C534.59,551.17,532.45,549.02,529.82,549.02z"/>
	<g>
		<path d="M181.53,415.73c0.53-1.98,0.77-3.51,0.74-4.69c-0.02-1.19-0.29-2.34-0.81-3.43c-0.55-1.1-1.36-2.07-2.41-2.89
			c-1.04-0.81-2.25-1.41-3.59-1.76c-1.67-0.44-3.25-0.42-4.69,0.09c-1.13,0.4-2.08,1.06-2.84,1.96c-0.3-0.73-0.75-1.38-1.34-1.94
			c-0.83-0.77-1.94-1.34-3.29-1.7c-1.63-0.44-3.2-0.39-4.67,0.14c-1.45,0.53-2.73,1.51-3.8,2.92c-0.39,0.51-0.74,1.13-1.04,1.85
			c-0.29,0.7-0.59,1.64-0.92,2.87l-1.7,6.37l28.39,7.56L181.53,415.73z M158.57,410.95l0.08-0.31c0.36-1.35,0.84-2.29,1.44-2.78
			c0.55-0.46,1.25-0.57,2.13-0.33c0.92,0.24,1.5,0.72,1.79,1.44c0.3,0.77,0.27,1.86-0.1,3.23l-0.04,0.16L158.57,410.95z
			 M169.22,413.79l0.31-1.15c0.38-1.44,0.97-2.46,1.73-3.02c0.74-0.55,1.63-0.67,2.74-0.38c0.99,0.27,1.62,0.77,1.9,1.53
			c0.3,0.81,0.25,2-0.15,3.53l-0.31,1.15L169.22,413.79z"/>
		<rect x="169.17" y="379.85" transform="matrix(0.3059 -0.9521 0.9521 0.3059 -255.9363 438.0294)" width="6.53" height="29.38"/>
		<polygon points="168.2,379.87 190.15,388.03 192.42,381.93 170.47,373.77 172.33,368.76 166.74,366.68 160.75,382.81 
			166.33,384.89 		"/>
		<path d="M176.03,366.52c1.34,1.46,2.96,2.63,4.81,3.48c1.82,0.83,3.69,1.32,5.55,1.47c0.38,0.03,0.76,0.04,1.14,0.04
			c1.48,0,2.94-0.22,4.35-0.67c2.11-0.65,3.97-1.66,5.51-3c1.54-1.34,2.78-3.03,3.69-5.03c1.31-2.87,1.76-5.69,1.33-8.39
			c-0.42-2.69-1.72-5.31-3.86-7.78l-0.49-0.57l-3.24,7.11l0.13,0.22c0.57,0.96,0.86,2.02,0.87,3.16c0.01,1.15-0.26,2.34-0.8,3.54
			c-0.95,2.1-2.48,3.48-4.67,4.23c-2.17,0.74-4.4,0.6-6.64-0.42c-1.01-0.46-1.93-1.12-2.71-1.96c-0.79-0.84-1.39-1.8-1.8-2.87
			c-0.39-0.99-0.57-2.03-0.54-3.07c0.03-1.04,0.28-2.07,0.72-3.05c0.55-1.21,1.29-2.2,2.19-2.94c0.89-0.73,1.98-1.24,3.22-1.5
			l0.24-0.05l3.23-7.09l-0.76,0.01c-3.42,0.02-6.33,0.76-8.66,2.19c-2.34,1.44-4.19,3.64-5.52,6.54c-0.83,1.81-1.28,3.68-1.35,5.56
			c-0.07,1.88,0.24,3.77,0.92,5.64C173.64,363.32,174.69,365.06,176.03,366.52z"/>
		<path d="M190.69,338.15c1.02,1.08,2.24,2.03,3.63,2.83c1.77,1.02,3.63,1.68,5.54,1.97c0.74,0.11,1.48,0.17,2.22,0.17
			c1.19,0,2.38-0.14,3.56-0.42c2.03-0.47,3.87-1.31,5.46-2.52c1.59-1.2,2.94-2.77,4.03-4.65c1.02-1.76,1.65-3.68,1.9-5.69
			c0.24-2.01,0.07-4.03-0.52-5.98c-0.54-1.92-1.43-3.67-2.66-5.2c-1.23-1.53-2.77-2.84-4.57-3.88c-1.74-1-3.61-1.63-5.57-1.88
			c-1.96-0.25-3.96-0.1-5.95,0.43c-1.92,0.53-3.68,1.39-5.23,2.58c-1.55,1.19-2.83,2.64-3.79,4.32c-1.29,2.23-1.99,4.61-2.09,7.07
			c-0.1,2.46,0.41,4.87,1.51,7.18C188.82,335.83,189.67,337.06,190.69,338.15z M205.84,320.6c2.17,1.25,3.6,3,4.25,5.21
			c0.66,2.23,0.41,4.31-0.78,6.37c-0.55,0.96-1.31,1.78-2.24,2.44c-0.94,0.66-2.02,1.13-3.21,1.4c-1.09,0.24-2.17,0.27-3.22,0.11
			c-1.05-0.17-2.09-0.54-3.1-1.12c-2.01-1.16-3.27-2.81-3.85-5.05c-0.58-2.21-0.28-4.36,0.89-6.39c1.12-1.94,2.79-3.21,4.98-3.79
			C201.79,319.17,203.84,319.44,205.84,320.6z"/>
		<rect x="210.74" y="293.79" transform="matrix(0.556 -0.8312 0.8312 0.556 -161.3878 314.8201)" width="6.53" height="29.38"/>
		<polygon points="234.55,304.69 220.61,294.08 241.27,295.86 244.84,291.16 221.46,273.37 217.58,278.47 231.1,288.76 
			210.92,287.23 207.28,292.01 230.65,309.8 		"/>
		<path d="M237.18,272.91c-0.57,0.66-0.83,1.42-0.78,2.27c0.05,0.86,0.41,1.58,1.07,2.15h0c0.6,0.52,1.28,0.78,2.04,0.78
			c0.09,0,0.18,0,0.27-0.01c0.86-0.07,1.58-0.43,2.15-1.09c0.57-0.66,0.83-1.43,0.76-2.29c-0.06-0.86-0.43-1.59-1.09-2.16
			s-1.43-0.82-2.28-0.75C238.47,271.88,237.75,272.25,237.18,272.91z"/>
		<path d="M263.46,270.61c1.54-1.57,2.67-2.96,3.36-4.14c0.7-1.2,1.15-2.48,1.34-3.81c0.36-2.3,0.13-4.57-0.67-6.76
			c-0.8-2.17-2.16-4.21-4.04-6.05c-1.68-1.65-3.46-2.9-5.31-3.72c-1.86-0.83-3.79-1.22-5.71-1.18c-1.82,0.04-3.51,0.46-5.03,1.23
			c-1.5,0.76-3.18,2.09-5.02,3.96l-7,7.13l20.96,20.58L263.46,270.61z M262.06,260.67c0.05,1.95-0.96,4-3.02,6.09l-2.26,2.3
			l-12.65-12.42l2.2-2.25c1.89-1.93,3.93-2.9,6.06-2.9c0.01,0,0.02,0,0.03,0c2.15,0.01,4.25,1.01,6.25,2.98
			C260.87,256.63,262.01,258.71,262.06,260.67z"/>
		<rect x="265.93" y="230.02" transform="matrix(0.7426 -0.6697 0.6697 0.7426 -94.5965 243.2751)" width="6.53" height="29.38"/>
		<path d="M274.72,239.16c1.22,1.55,2.66,2.83,4.26,3.81c1.61,0.98,3.36,1.64,5.2,1.97c0.94,0.16,1.87,0.24,2.79,0.24
			c1.21,0,2.39-0.14,3.53-0.43c1.99-0.5,3.88-1.44,5.62-2.81c2.35-1.85,4.02-4.13,4.96-6.78c0.94-2.64,1.11-5.5,0.49-8.5
			c-0.22-1.04-0.58-2.07-1.07-3.06c-0.49-0.98-1.13-1.98-1.9-2.96c-0.07-0.09-0.18-0.22-0.33-0.39c-0.13-0.15-0.23-0.26-0.29-0.34
			l-0.3-0.38l-14.69,11.58l3.54,4.5l8.54-6.73c0.24,1.32,0.15,2.63-0.27,3.91c-0.5,1.51-1.4,2.79-2.67,3.79
			c-1.87,1.47-3.91,2.05-6.22,1.75c-2.29-0.3-4.2-1.41-5.69-3.3c-1.47-1.86-2.1-3.96-1.87-6.25c0.23-2.31,1.23-4.13,3.05-5.57
			c1.03-0.81,2.11-1.35,3.23-1.62c1.11-0.26,2.29-0.26,3.49,0.02l0.23,0.05l6.06-4.77l-0.64-0.35c-2.8-1.55-5.62-2.23-8.38-2.02
			c-2.76,0.21-5.41,1.3-7.88,3.24c-1.68,1.33-3.03,2.83-3.99,4.48c-0.96,1.65-1.58,3.51-1.83,5.52c-0.27,2.12-0.15,4.16,0.36,6.08
			C272.56,235.77,273.46,237.56,274.72,239.16z"/>
		<rect x="301.89" y="201.67" transform="matrix(0.8244 -0.566 0.566 0.8244 -68.8766 210.6952)" width="6.53" height="29.38"/>
		<polygon points="310.75,202.19 323.13,222.06 328.66,218.62 316.27,198.75 320.81,195.92 317.65,190.86 303.06,199.96 
			306.21,205.02 		"/>
		<path d="M336.58,213.86l-0.9-6.28l8.67-4.71l4.81,4.16l6.14-3.34l-23.9-20.45l-4.8,2.61l4,31.26L336.58,213.86z M333.62,193.31
			l5.82,5.12l-4.75,2.58L333.62,193.31z"/>
		<polygon points="370.32,196.99 367.83,191.57 359.73,195.3 349.94,174.03 344.06,176.74 356.34,203.42 		"/>
		<path d="M370.47,183.52c0.4,0.17,0.81,0.25,1.21,0.25c0.4,0,0.8-0.08,1.2-0.24c0.81-0.33,1.39-0.89,1.73-1.69
			c0.34-0.8,0.34-1.61,0.02-2.42c-0.33-0.81-0.89-1.38-1.69-1.71c-0.79-0.33-1.6-0.33-2.4,0c-0.81,0.32-1.39,0.88-1.73,1.67
			c-0.35,0.79-0.36,1.59-0.03,2.4C369.11,182.6,369.68,183.19,370.47,183.52z"/>
		<path d="M399.84,185.53c1.17-0.75,2.16-1.68,2.93-2.78c1.37-1.88,2.21-4.01,2.49-6.31c0.28-2.3,0-4.73-0.83-7.23
			c-0.74-2.23-1.75-4.16-3.02-5.73c-1.27-1.59-2.8-2.82-4.54-3.66c-1.64-0.79-3.33-1.2-5.03-1.2c-1.63-0.01-3.79,0.41-6.27,1.23
			l-9.48,3.14l9.24,27.89l9.63-3.19C397.05,186.98,398.69,186.26,399.84,185.53z M389.73,183.25l-5.58-16.83l2.99-0.99
			c2.58-0.85,4.84-0.79,6.74,0.2c1.9,0.99,3.32,2.84,4.2,5.51c0.97,2.92,1.02,5.29,0.18,7.05c-0.84,1.76-2.68,3.12-5.47,4.04
			L389.73,183.25z"/>
		<polygon points="428.09,178.32 426.65,172.54 417.11,174.92 415.64,169.04 425.18,166.66 423.75,160.95 414.21,163.33 
			412.88,157.98 422.42,155.6 420.97,149.82 405.16,153.77 412.27,182.27 		"/>
		<path d="M430.74,168.16c0.92,1.63,2.13,3.04,3.59,4.2c1.72,1.39,3.6,2.36,5.56,2.89c1.17,0.31,2.38,0.47,3.63,0.47
			c0.85,0,1.72-0.07,2.6-0.22c3.11-0.52,5.7-1.73,7.7-3.58c2-1.86,3.44-4.4,4.29-7.55l0.2-0.73l-7.71,1.29l-0.11,0.23
			c-0.48,1.01-1.19,1.84-2.13,2.49c-0.95,0.65-2.09,1.1-3.38,1.31c-2.27,0.38-4.27-0.11-6.12-1.5c-1.83-1.38-2.96-3.31-3.37-5.74
			c-0.18-1.1-0.15-2.22,0.11-3.34c0.25-1.12,0.71-2.16,1.37-3.09c0.61-0.88,1.36-1.61,2.24-2.16c0.88-0.56,1.87-0.93,2.93-1.11
			c1.32-0.22,2.55-0.16,3.66,0.17c1.11,0.33,2.13,0.95,3.05,1.84l0.18,0.17l7.68-1.29l-0.43-0.62c-1.93-2.82-4.17-4.82-6.66-5.95
			c-2.5-1.13-5.36-1.44-8.51-0.92c-1.97,0.33-3.77,1-5.36,1.99c-1.59,1-2.99,2.31-4.16,3.92c-1.23,1.72-2.08,3.57-2.55,5.5
			c-0.46,1.93-0.53,3.93-0.19,5.93C429.19,164.71,429.82,166.54,430.74,168.16z"/>
		<polygon points="479.24,171.07 478.73,165.13 468.93,165.98 468.4,159.95 478.2,159.09 477.69,153.23 467.89,154.09 
			467.41,148.59 477.21,147.74 476.69,141.8 460.45,143.22 463,172.48 		"/>
		<polygon points="490.04,153.12 501.35,170.49 507.25,170.42 506.88,141.04 500.47,141.12 500.69,158.12 489.47,141.26 
			483.46,141.33 483.82,170.71 490.25,170.63 		"/>
		<polygon points="515.25,170.89 521.75,171.26 523.08,147.88 528.42,148.18 528.76,142.23 511.58,141.25 511.24,147.21 
			516.58,147.51 		"/>
		<path d="M570.03,178.03l6.86,1.34l-5.39-30.99l-5.36-1.05l-16.21,25.66l-5.2-10.69c1.92-0.28,3.55-1.07,4.86-2.37
			c1.46-1.44,2.33-3.33,2.61-5.62c0.23-1.89-0.02-3.62-0.73-5.14c-0.71-1.52-1.88-2.8-3.47-3.79c-0.73-0.45-1.64-0.82-2.7-1.1
			c-1.05-0.28-2.62-0.55-4.8-0.81l-7.18-0.86l-3.51,29.17l6.48,0.78l1.41-11.73l5.11,12.51l7.75,0.93l-0.03-0.06l5.45,1.07
			l3.31-5.42l9.68,1.9L570.03,178.03z M568.01,165.22l-5.3-1.04l4.08-6.62L568.01,165.22z M540.7,149.13
			c1.94,0.23,3.33,0.73,4.13,1.48c0.77,0.72,1.07,1.73,0.91,3.08c-0.17,1.4-0.79,2.36-1.91,2.96c-1.16,0.62-2.82,0.8-4.95,0.55
			l-0.74-0.09l0.98-8.17L540.7,149.13z"/>
		<polygon points="594.25,178.01 585.63,175.72 591.63,153.09 585.38,151.43 577.85,179.83 592.72,183.77 		"/>
		<rect x="588.96" y="168.59" transform="matrix(0.3007 -0.9537 0.9537 0.3007 258.2437 695.8984)" width="29.38" height="6.53"/>
		<polygon points="607.52,182.49 607.41,182.57 605.5,187.77 623.12,194.27 625.27,188.42 614.65,184.5 631.24,171.46 
			633.03,166.61 616.42,160.48 614.26,166.33 623.68,169.81 		"/>
		<polygon points="640.88,202.05 643.29,196.6 634.29,192.62 636.74,187.08 645.74,191.05 648.11,185.67 639.11,181.7 
			641.34,176.65 650.34,180.63 652.75,175.17 637.83,168.59 625.96,195.46 		"/>
		<path d="M661.48,211.08c0.49,0,0.99-0.04,1.48-0.11c2.31-0.3,4.42-1.16,6.29-2.55c1.86-1.38,3.43-3.26,4.67-5.58
			c1.11-2.07,1.8-4.14,2.07-6.14c0.27-2.02,0.11-3.97-0.48-5.81c-0.56-1.73-1.43-3.24-2.59-4.48c-1.15-1.22-2.91-2.47-5.21-3.7
			l-8.81-4.7l-13.84,25.91l8.95,4.78c1.94,1.04,3.6,1.73,4.92,2.06C659.77,210.98,660.63,211.08,661.48,211.08z M664.73,187.71
			c2.39,1.28,3.91,2.97,4.5,5.03c0.59,2.06,0.22,4.36-1.1,6.84c-1.45,2.71-3.12,4.38-4.99,4.99c-1.86,0.6-4.11,0.2-6.7-1.18
			l-2.84-1.52l8.35-15.64L664.73,187.71z"/>
		<path d="M681.75,210.3c0.84-0.2,1.5-0.68,1.96-1.42c0.46-0.74,0.59-1.54,0.38-2.38c-0.21-0.83-0.69-1.48-1.43-1.94
			c-0.74-0.46-1.54-0.59-2.37-0.41c-0.83,0.18-1.49,0.66-1.95,1.4l0,0c-0.46,0.75-0.6,1.56-0.39,2.4c0.2,0.83,0.68,1.49,1.42,1.95
			c0.52,0.32,1.06,0.48,1.63,0.48C681.25,210.39,681.5,210.36,681.75,210.3z"/>
		<path d="M686.27,228.17l6.21-8.97l1.3,0.9c2.59,1.8,5.18,2.54,7.69,2.21c2.53-0.33,4.64-1.68,6.26-4.03
			c0.89-1.28,1.44-2.7,1.63-4.22c0.2-1.53,0.03-3-0.51-4.39c-0.3-0.77-0.85-1.57-1.63-2.36c-0.76-0.77-1.9-1.68-3.39-2.72l-6.2-4.3
			l-16.74,24.15L686.27,228.17z M700.38,209.46c1.24,0.86,2,1.73,2.27,2.6c0.25,0.83,0.06,1.69-0.59,2.63
			c-0.63,0.91-1.38,1.38-2.3,1.45c-0.94,0.07-2.01-0.3-3.19-1.12l-0.81-0.56l3.84-5.54L700.38,209.46z"/>
		<polygon points="711.3,247.02 715.01,242.35 707.31,236.23 711.08,231.49 718.78,237.61 722.44,233 714.74,226.88 718.17,222.56 
			725.87,228.68 729.57,224.01 716.81,213.87 698.54,236.88 		"/>
		<polygon points="727.01,261.04 731.02,256.62 723.72,250.02 727.79,245.53 735.08,252.13 739.03,247.76 731.74,241.16 
			735.44,237.08 742.73,243.68 746.73,239.26 734.64,228.32 714.93,250.1 		"/>
		<path d="M734.94,268.97l8.51-8.2l-3.95,12.93l5.42,5.62l3.06-12.96c1.66,1,3.43,1.41,5.26,1.23c2.04-0.2,3.92-1.11,5.57-2.71
			c1.37-1.32,2.27-2.82,2.68-4.45c0.41-1.63,0.31-3.36-0.3-5.13c-0.29-0.81-0.76-1.67-1.4-2.56c-0.63-0.87-1.71-2.11-3.21-3.66
			l-5.02-5.21l-21.16,20.38L734.94,268.97z M750.84,261.41c-1.29-0.25-2.7-1.16-4.18-2.7l-0.52-0.54l5.92-5.71l1.1,1.14
			c1.36,1.41,2.12,2.67,2.26,3.76c0.14,1.05-0.27,2.01-1.24,2.96C753.18,261.3,752.08,261.66,750.84,261.41z"/>
		<polygon points="757.17,294.07 761.18,299.19 779.62,284.76 782.92,288.97 787.61,285.29 777.01,271.75 772.32,275.42 
			775.61,279.63 		"/>
		<path d="M781.69,294.18c-1.41,0.45-2.8,1.14-4.13,2.05c-1.68,1.15-3.08,2.54-4.18,4.14c-1.09,1.6-1.85,3.39-2.27,5.33
			c-0.46,2.04-0.49,4.06-0.09,6.01c0.39,1.95,1.22,3.85,2.45,5.65c1.15,1.68,2.6,3.08,4.31,4.17c1.71,1.09,3.6,1.81,5.62,2.12
			c0.85,0.15,1.71,0.23,2.56,0.23c1.1,0,2.2-0.13,3.28-0.38c1.92-0.45,3.76-1.27,5.47-2.44c1.66-1.13,3.04-2.55,4.11-4.21
			c1.07-1.66,1.8-3.52,2.18-5.55c0.36-1.96,0.33-3.92-0.06-5.83c-0.4-1.91-1.16-3.69-2.25-5.29c-1.46-2.13-3.3-3.79-5.48-4.94
			c-2.17-1.15-4.57-1.74-7.12-1.74C784.59,293.49,783.11,293.72,781.69,294.18z M779.21,304.03c0.6-0.87,1.39-1.65,2.35-2.31
			c1.91-1.31,3.95-1.73,6.22-1.29c2.24,0.44,4.05,1.64,5.38,3.57c1.28,1.87,1.7,3.88,1.26,6.13c-0.42,2.23-1.59,4.01-3.47,5.3
			c-2.06,1.41-4.26,1.94-6.54,1.58c-2.3-0.37-4.06-1.5-5.4-3.46c-0.63-0.91-1.04-1.95-1.23-3.08c-0.19-1.14-0.15-2.31,0.13-3.5
			C778.17,305.89,778.61,304.9,779.21,304.03z"/>
		<path d="M793.13,349.61l9.73-4.94l0.72,1.41c1.43,2.81,3.35,4.7,5.72,5.6c0.99,0.38,1.99,0.57,3.01,0.57
			c1.45,0,2.92-0.38,4.41-1.13c1.39-0.7,2.54-1.69,3.44-2.93c0.9-1.25,1.45-2.63,1.64-4.11c0.1-0.83,0-1.79-0.32-2.85
			c-0.3-1.04-0.87-2.39-1.69-4l-3.42-6.73l-26.2,13.3L793.13,349.61z M815.2,343.21c-0.17,0.85-0.75,1.52-1.77,2.04
			c-0.99,0.5-1.87,0.56-2.71,0.19c-0.86-0.38-1.63-1.22-2.27-2.5l-0.44-0.87l6.01-3.05l0.43,0.84
			C815.12,341.19,815.38,342.32,815.2,343.21z"/>
		<polygon points="806.23,378.11 811.71,375.76 807.83,366.72 813.4,364.33 817.28,373.37 822.69,371.05 818.81,362.01 
			823.88,359.84 827.75,368.88 833.23,366.53 826.81,351.55 799.8,363.12 		"/>
		<polygon points="813.4,397.88 819.02,395.89 815.73,386.62 821.44,384.59 824.73,393.87 830.27,391.9 826.99,382.63 
			832.18,380.79 835.47,390.06 841.09,388.07 835.64,372.7 807.95,382.51 		"/>
		<path d="M846.17,406.12c-0.14-1.07-0.5-2.66-1.09-4.74l-1.95-6.97l-28.3,7.9l1.76,6.29l11.38-3.18l-9.61,9.5l2.1,7.52l8.84-9.96
			c0.99,1.67,2.35,2.87,4.04,3.58c1.89,0.79,3.97,0.88,6.19,0.26c1.83-0.51,3.34-1.4,4.47-2.64c1.13-1.24,1.87-2.81,2.17-4.65
			C846.32,408.2,846.32,407.21,846.17,406.12z M840.15,408.12c-0.37,0.99-1.19,1.65-2.5,2.01c-1.35,0.38-2.49,0.17-3.46-0.63
			c-1.01-0.83-1.82-2.3-2.39-4.36l-0.2-0.72l7.92-2.21l0.43,1.53C840.46,405.61,840.53,407.09,840.15,408.12z"/>
		<polygon points="831.03,624.52 808.41,615.87 806.16,621.76 833.6,632.26 837.62,621.73 832.8,619.89 		"/>
		<polygon points="822.13,644.13 800.83,634.39 798.12,640.31 819.42,650.05 817.19,654.91 822.62,657.39 829.77,641.75 
			824.35,639.27 		"/>
		<path d="M791.62,653.39l10.41,5.58l-13.51,0.21l-3.69,6.88l13.27-1.06c-0.44,1.89-0.29,3.7,0.44,5.38
			c0.82,1.88,2.26,3.39,4.28,4.48c1.49,0.8,3.01,1.21,4.51,1.21c0.18,0,0.37-0.01,0.55-0.02c1.68-0.11,3.29-0.74,4.79-1.85
			c0.68-0.52,1.36-1.23,2.01-2.12c0.64-0.87,1.48-2.28,2.5-4.17l3.42-6.38l-25.89-13.89L791.62,653.39z M804.99,661.4l0.35-0.66
			l7.25,3.89l-0.75,1.4c-0.92,1.72-1.9,2.83-2.89,3.31c-0.95,0.46-2,0.36-3.19-0.28c-1.24-0.67-1.91-1.6-2.06-2.85
			C803.54,664.9,803.97,663.29,804.99,661.4z"/>
		<path d="M800.11,678.37c-0.96-1.14-2.13-2.15-3.47-3.03c-1.71-1.11-3.53-1.88-5.43-2.27c-1.89-0.39-3.84-0.41-5.79-0.06
			c-2.05,0.36-3.93,1.1-5.59,2.22c-1.65,1.12-3.09,2.6-4.28,4.43c-1.11,1.7-1.85,3.58-2.2,5.58c-0.35,2-0.29,4.02,0.19,6
			c0.43,1.94,1.23,3.74,2.38,5.34c1.14,1.6,2.61,2.98,4.35,4.12c1.68,1.09,3.52,1.83,5.46,2.18c0.88,0.16,1.77,0.24,2.67,0.24
			c1.09,0,2.19-0.12,3.29-0.35c1.95-0.42,3.75-1.19,5.36-2.29c1.61-1.1,2.96-2.48,4.03-4.11c1.41-2.16,2.24-4.5,2.47-6.95
			c0.23-2.45-0.14-4.89-1.12-7.25C801.85,680.78,801.07,679.5,800.11,678.37z M796.67,686.4c0.46,2.24,0.04,4.37-1.24,6.33
			c-1.22,1.87-2.96,3.06-5.18,3.52c-2.22,0.46-4.31,0.06-6.22-1.18c-2.1-1.36-3.43-3.19-3.96-5.43c-0.54-2.26-0.17-4.33,1.12-6.32
			c0.6-0.93,1.4-1.71,2.37-2.31c0.97-0.61,2.08-1.02,3.28-1.22c0.49-0.08,0.97-0.12,1.45-0.12c0.6,0,1.19,0.06,1.77,0.19
			c1.04,0.22,2.06,0.66,3.03,1.29v0C795.03,682.41,796.2,684.13,796.67,686.4z"/>
		<polygon points="763.21,698.28 759.23,703.45 767.63,709.92 777.3,728.14 781.66,722.47 775.39,711.9 787.24,715.23 
			791.62,709.54 771.62,704.75 		"/>
		<path d="M768.71,722.9c-0.77-1.27-1.76-2.46-2.95-3.53c-1.52-1.37-3.2-2.41-5-3.09c-1.8-0.68-3.72-1-5.71-0.97
			c-2.08,0.03-4.06,0.47-5.87,1.31c-1.81,0.84-3.46,2.09-4.92,3.7c-1.36,1.51-2.39,3.25-3.05,5.17c-0.66,1.92-0.92,3.93-0.75,5.96
			c0.12,1.99,0.63,3.89,1.51,5.65c0.88,1.76,2.11,3.36,3.65,4.75c1.49,1.35,3.19,2.36,5.05,3.01c1.61,0.56,3.31,0.85,5.07,0.85
			c0.28,0,0.56-0.01,0.84-0.02c1.99-0.11,3.9-0.59,5.66-1.42c1.76-0.83,3.32-1.99,4.62-3.43c1.73-1.91,2.92-4.09,3.53-6.48
			c0.61-2.38,0.62-4.85,0.03-7.33C770.06,725.56,769.48,724.18,768.71,722.9z M755.43,722.22c1.09,0,2.14,0.19,3.12,0.57
			c0.99,0.38,1.93,0.97,2.79,1.75c1.7,1.53,2.61,3.47,2.71,5.75c0.1,2.28-0.65,4.32-2.22,6.06c-1.5,1.66-3.41,2.56-5.67,2.66
			c-2.26,0.11-4.27-0.61-5.96-2.14c-1.86-1.68-2.89-3.69-3.06-5.99c-0.17-2.32,0.51-4.3,2.1-6.06c0.74-0.82,1.65-1.46,2.7-1.91
			c1.06-0.45,2.21-0.68,3.43-0.69C755.4,722.22,755.42,722.22,755.43,722.22z"/>
		<polygon points="741.33,757.11 737.15,737 737.12,736.87 733.32,732.84 719.66,745.74 723.94,750.27 732.18,742.5 736.45,763.02 
			736.48,763.16 740.03,766.91 752.91,754.76 748.63,750.22 		"/>
		<path d="M719.82,771.17c-1.69-2.22-3.82-3.61-6.34-4.13c-2.54-0.53-4.83-0.04-6.79,1.45c-0.24,0.18-0.49,0.4-0.74,0.65
			c-0.03,0.03-0.07,0.07-0.1,0.11l-0.72-11.37l-5.54,4.21l0.75,11.44c0.17,2.85,0.48,5.05,0.92,6.54c0.44,1.51,1.11,2.87,2,4.03
			c0.79,1.03,1.78,1.89,2.95,2.56c1.17,0.66,2.44,1.09,3.8,1.28c0.47,0.06,0.94,0.1,1.41,0.1c0.89,0,1.78-0.12,2.64-0.35
			c1.32-0.35,2.56-0.97,3.69-1.83c1.33-1.01,2.33-2.15,3-3.4c0.67-1.25,1.05-2.72,1.14-4.38c0.05-1.23-0.1-2.47-0.46-3.69
			C721.05,773.17,720.51,772.08,719.82,771.17z M715.7,778.27c-0.12,1.14-0.65,2.06-1.62,2.79c-0.91,0.69-1.94,0.92-3.13,0.71
			c-1.21-0.22-2.19-0.83-2.98-1.87c-0.71-0.94-0.99-1.97-0.83-3.16c0.15-1.18,0.68-2.1,1.62-2.82c0.95-0.72,1.96-0.99,3.07-0.79
			c1.13,0.2,2.07,0.8,2.86,1.85C715.49,776.03,715.82,777.11,715.7,778.27z"/>
		<path d="M699.37,786.63c-1.5-2.35-3.51-3.91-5.98-4.64c-2.5-0.73-4.81-0.43-6.89,0.89c-0.26,0.16-0.52,0.36-0.79,0.59
			c-0.04,0.03-0.08,0.06-0.11,0.1l0.21-11.39l-5.86,3.74l-0.19,11.46c-0.06,2.86,0.07,5.08,0.38,6.6c0.32,1.54,0.87,2.95,1.66,4.18
			c0.7,1.09,1.62,2.03,2.73,2.79c1.11,0.75,2.35,1.29,3.68,1.58c0.74,0.16,1.49,0.25,2.23,0.25c0.61,0,1.22-0.05,1.83-0.17
			c1.34-0.24,2.63-0.76,3.83-1.52c1.4-0.9,2.5-1.96,3.27-3.15c0.77-1.19,1.27-2.63,1.49-4.27c0.15-1.22,0.1-2.47-0.16-3.72
			C700.43,788.72,699.99,787.6,699.37,786.63z M694.68,793.37c-0.22,1.13-0.82,2-1.84,2.65c-0.96,0.62-2,0.76-3.18,0.45
			c-1.19-0.32-2.12-1.01-2.82-2.11c-0.63-0.99-0.82-2.04-0.57-3.21c0.25-1.17,0.85-2.04,1.84-2.67c0.7-0.45,1.41-0.67,2.14-0.67
			c0.33,0,0.66,0.04,0.99,0.13c1.11,0.29,1.99,0.97,2.7,2.08C694.66,791.13,694.9,792.22,694.68,793.37z"/>
		<path d="M677.84,800.36c-1.35-2.44-3.26-4.12-5.68-5c-2.45-0.89-4.78-0.74-6.93,0.46c-0.28,0.15-0.55,0.33-0.83,0.54
			c-0.04,0.03-0.08,0.06-0.12,0.09l0.93-11.35l-6.09,3.37l-0.91,11.43c-0.24,2.85-0.25,5.07-0.03,6.61c0.22,1.56,0.69,3,1.39,4.28
			c0.63,1.13,1.49,2.13,2.55,2.96c1.06,0.82,2.26,1.43,3.57,1.81c0.94,0.27,1.89,0.41,2.85,0.41c0.4,0,0.8-0.02,1.2-0.07
			c1.35-0.16,2.67-0.59,3.92-1.28c1.46-0.81,2.62-1.79,3.46-2.94c0.84-1.15,1.43-2.55,1.76-4.17c0.23-1.21,0.25-2.46,0.07-3.72
			C678.76,802.52,678.39,801.37,677.84,800.36z M672.73,806.79c-0.29,1.11-0.94,1.94-2,2.53c-1,0.55-2.05,0.63-3.2,0.25
			c-1.17-0.39-2.05-1.14-2.68-2.28c-0.57-1.03-0.69-2.09-0.37-3.24c0.32-1.15,0.98-1.98,2.01-2.55c0.65-0.36,1.3-0.54,1.95-0.54
			c0.4,0,0.8,0.07,1.21,0.2c1.09,0.36,1.93,1.09,2.57,2.24C672.85,804.55,673.02,805.66,672.73,806.79z"/>
		<polygon points="628.69,803.32 633.36,814.4 624.29,818.21 626.58,823.63 635.64,819.82 637.78,824.9 628.72,828.71 
			631.03,834.21 646.06,827.88 634.65,800.81 		"/>
		<rect x="614.33" y="808.79" transform="matrix(0.9395 -0.3425 0.3425 0.9395 -244.662 261.2874)" width="6.53" height="29.38"/>
		<polygon points="598.77,814.41 603.75,831.2 588.13,817.57 582.47,819.25 590.84,847.41 596.98,845.58 592.14,829.29 
			607.53,842.45 613.29,840.74 604.93,812.58 		"/>
		<polygon points="561.95,823.74 563.22,829.57 572.83,827.48 574.11,833.41 564.5,835.49 565.75,841.24 575.36,839.15 
			576.53,844.54 566.92,846.63 568.18,852.45 584.12,849 577.89,820.29 		"/>
		<path d="M545.71,835.88c-0.81-1.69-1.91-3.19-3.28-4.44c-1.62-1.51-3.42-2.61-5.35-3.28c-1.93-0.66-4.01-0.9-6.2-0.69
			c-3.14,0.3-5.81,1.32-7.94,3.03c-2.13,1.71-3.75,4.14-4.82,7.23l-0.25,0.71l7.78-0.74l0.12-0.22c0.55-0.97,1.32-1.75,2.3-2.33
			c0.99-0.58,2.16-0.94,3.47-1.07c2.28-0.22,4.25,0.42,6,1.93c1.73,1.5,2.72,3.51,2.95,5.96c0.11,1.11-0.01,2.23-0.34,3.33
			c-0.33,1.1-0.87,2.11-1.58,2.99c-0.67,0.84-1.48,1.51-2.39,2c-0.92,0.49-1.93,0.79-3,0.9c-1.33,0.12-2.55-0.02-3.64-0.43
			c-1.08-0.41-2.06-1.1-2.91-2.04l-0.16-0.18l-7.76,0.74l0.38,0.65c1.72,2.95,3.82,5.1,6.22,6.41c1.96,1.06,4.2,1.6,6.68,1.6
			c0.57,0,1.15-0.03,1.75-0.09c1.99-0.19,3.83-0.73,5.49-1.61c1.66-0.88,3.15-2.09,4.43-3.62c1.35-1.63,2.33-3.42,2.93-5.3
			c0.6-1.9,0.81-3.88,0.61-5.9C547.02,839.43,546.52,837.57,545.71,835.88z"/>
		<path d="M511.19,833.54c-1.42-1.53-3.07-2.69-4.91-3.47c-1.83-0.78-3.87-1.17-6.04-1.17c-2.04,0-4.01,0.4-5.88,1.2
			c-1.87,0.79-3.53,1.95-4.93,3.43c-1.39,1.42-2.46,3.07-3.18,4.9c-0.71,1.83-1.08,3.81-1.08,5.89c0,2.01,0.39,3.95,1.15,5.77
			c0.76,1.82,1.89,3.48,3.34,4.94c1.42,1.4,3.05,2.5,4.85,3.25c1.8,0.75,3.7,1.13,5.64,1.13c2.58,0,4.99-0.58,7.17-1.72
			c2.18-1.14,4.02-2.79,5.46-4.89c0.84-1.25,1.49-2.6,1.92-4.02c0.43-1.42,0.65-2.96,0.65-4.56c0-2.04-0.36-3.99-1.06-5.79
			C513.6,836.63,512.55,834.98,511.19,833.54z M508.55,844.41c0,2.29-0.83,4.26-2.45,5.86c-1.63,1.6-3.64,2.42-5.98,2.42
			c0,0,0,0,0,0c-2.27,0-4.16-0.79-5.77-2.42c-1.62-1.63-2.41-3.55-2.41-5.86c0-2.5,0.81-4.61,2.4-6.28c1.6-1.68,3.53-2.5,5.9-2.5
			c1.11,0,2.2,0.25,3.23,0.73c1.04,0.48,1.99,1.18,2.81,2.08c0.75,0.82,1.32,1.74,1.7,2.74
			C508.36,842.16,508.55,843.25,508.55,844.41z"/>
		<path d="M474.45,839.4l-1.58-0.13c-3.15-0.26-5.76,0.4-7.77,1.94c-2.03,1.55-3.17,3.78-3.4,6.62c-0.13,1.55,0.11,3.05,0.7,4.47
			c0.59,1.42,1.48,2.61,2.64,3.55c0.65,0.52,1.52,0.93,2.6,1.23c1.04,0.29,2.48,0.5,4.3,0.65l7.52,0.61l2.39-29.28l-6.51-0.53
			L474.45,839.4z M473.44,851.86l-0.94-0.08c-1.5-0.12-2.6-0.5-3.26-1.11c-0.64-0.59-0.9-1.43-0.81-2.57
			c0.09-1.1,0.5-1.89,1.26-2.41c0.64-0.44,1.51-0.66,2.59-0.66c0.23,0,0.47,0.01,0.72,0.03l0.98,0.08L473.44,851.86z"/>
		<path d="M452.28,836.98l-1.57-0.23c-3.12-0.46-5.77,0.02-7.88,1.43c-2.12,1.42-3.41,3.57-3.82,6.38c-0.23,1.54-0.09,3.05,0.4,4.5
			c0.5,1.46,1.31,2.71,2.4,3.71c0.61,0.56,1.46,1.03,2.51,1.39c1.02,0.35,2.44,0.67,4.24,0.93l7.47,1.1l4.29-29.07l-6.46-0.95
			L452.28,836.98z M450.45,849.35l-0.93-0.14c-1.49-0.22-2.56-0.66-3.18-1.32c-0.6-0.63-0.81-1.49-0.64-2.62
			c0.16-1.09,0.62-1.85,1.41-2.32c0.57-0.34,1.29-0.51,2.16-0.51c0.37,0,0.77,0.03,1.19,0.09l0.97,0.14L450.45,849.35z"/>
		<polygon points="423.04,820.42 421.8,826.25 431.41,828.3 430.15,834.23 420.53,832.17 419.3,837.92 428.91,839.98 427.76,845.37 
			418.14,843.32 416.9,849.14 432.84,852.56 438.99,823.83 		"/>
		<path d="M412.21,817.53l-3.24,11.36l-3.07-13.16l-7.5-2.14l3.86,12.75c-1.95-0.03-3.68,0.5-5.17,1.57
			c-1.67,1.2-2.83,2.92-3.46,5.14c-0.52,1.83-0.55,3.58-0.09,5.19c0.47,1.62,1.42,3.06,2.83,4.29c0.65,0.55,1.49,1.06,2.5,1.52
			c0.98,0.44,2.54,0.96,4.61,1.55l6.96,1.99l8.07-28.25L412.21,817.53z M405.67,840.4l-1.52-0.44c-1.88-0.54-3.17-1.25-3.85-2.12
			c-0.65-0.83-0.78-1.88-0.41-3.18c0.39-1.35,1.15-2.21,2.35-2.62c0.52-0.18,1.12-0.27,1.79-0.27c0.92,0,1.99,0.17,3.18,0.51
			l0.72,0.21L405.67,840.4z"/>
		<polygon points="370.64,822.78 371.98,803.58 367.5,801.66 354.51,815.86 361.84,799.23 355.91,796.68 344.32,823.68 
			351.84,826.91 365.91,811.53 364.46,832.33 371.98,835.55 383.57,808.56 377.62,806 		"/>
		<path d="M344.25,800.13l5.73,3.03l0.23-0.43c1.3-2.46,1.69-4.71,1.14-6.69c-0.55-1.99-2.01-3.63-4.34-4.86
			c-1.35-0.71-2.72-1.09-4.09-1.11c-1.37-0.01-2.67,0.31-3.86,1c-0.8,0.45-1.55,1.09-2.21,1.91c-0.65,0.79-1.43,2.06-2.34,3.77
			l-8.97,16.95l5.77,3.05l8.77-16.57c0.84-1.59,1.59-2.63,2.21-3.08c0.53-0.39,1.07-0.42,1.69-0.09c0.48,0.26,0.77,0.59,0.86,1.03
			c0.1,0.46-0.01,1-0.37,1.67L344.25,800.13z"/>
		<path d="M328.51,781.37c-1.74-1.07-3.14-1.73-4.28-2.05c-1.14-0.31-2.32-0.38-3.52-0.21c-1.21,0.21-2.37,0.71-3.46,1.49
			c-1.08,0.77-1.99,1.76-2.71,2.94c-0.9,1.48-1.32,3-1.25,4.52c0.06,1.2,0.42,2.3,1.08,3.28c-0.79,0.08-1.54,0.32-2.24,0.74
			c-0.98,0.58-1.84,1.48-2.57,2.67c-0.88,1.44-1.28,2.96-1.19,4.51c0.09,1.54,0.67,3.05,1.72,4.47c0.38,0.52,0.87,1.04,1.48,1.53
			c0.58,0.47,1.42,1.05,2.49,1.7l5.62,3.44L335,785.33L328.51,781.37z M326.5,787.13l-3.35,5.49l-1.02-0.62
			c-1.27-0.78-2.08-1.63-2.41-2.51c-0.31-0.86-0.18-1.76,0.42-2.73c0.54-0.88,1.19-1.33,2.01-1.39c0.06,0,0.12-0.01,0.18-0.01
			c0.84,0,1.9,0.39,3.16,1.16L326.5,787.13z M317.13,801.86c-1.19-0.73-1.95-1.46-2.26-2.17c-0.28-0.66-0.19-1.36,0.28-2.13
			c0.5-0.81,1.11-1.24,1.89-1.3c0.07-0.01,0.14-0.01,0.21-0.01c0.79,0,1.74,0.34,2.86,1.02l0.14,0.08l-2.85,4.67L317.13,801.86z"/>
		<polygon points="289.92,777.18 296.3,759.03 292.49,755.98 276.2,766.23 287.68,752.14 282.64,748.11 264.3,771.07 270.69,776.17 
			288.33,765.08 281.42,784.75 287.82,789.85 306.15,766.9 301.1,762.86 		"/>
		<path d="M270.04,756.63c1.43-1.46,2.54-3.1,3.3-4.87c0.76-1.78,1.16-3.69,1.2-5.67c0.06-2.08-0.31-4.07-1.07-5.91
			c-0.77-1.84-1.94-3.54-3.5-5.07c-1.45-1.42-3.15-2.52-5.04-3.26c-1.89-0.74-3.89-1.07-5.92-1c-1.99,0.04-3.9,0.47-5.7,1.28
			c-1.79,0.81-3.44,1.97-4.89,3.46c-1.4,1.43-2.49,3.09-3.22,4.92c-0.73,1.83-1.09,3.81-1.07,5.87c0.03,2,0.43,3.92,1.19,5.71
			c0.76,1.8,1.85,3.4,3.24,4.75c1.84,1.8,3.97,3.08,6.33,3.79c1.4,0.42,2.83,0.63,4.29,0.63c1,0,2.01-0.1,3.03-0.3
			c1.47-0.3,2.88-0.81,4.19-1.53C267.69,758.72,268.92,757.77,270.04,756.63z M267.6,746.15c-0.04,1.11-0.28,2.17-0.7,3.14
			c-0.42,0.98-1.05,1.89-1.86,2.72v0c-1.6,1.63-3.57,2.46-5.85,2.47c-0.01,0-0.01,0-0.02,0c-2.28,0-4.28-0.83-5.95-2.46
			c-1.6-1.56-2.41-3.51-2.43-5.77c-0.01-2.27,0.79-4.24,2.38-5.87c1.75-1.79,3.81-2.73,6.11-2.81c0.11,0,0.22,0,0.33,0
			c2.18,0,4.03,0.77,5.64,2.35c0.79,0.77,1.4,1.71,1.8,2.78C267.46,743.77,267.64,744.93,267.6,746.15z"/>
		<polygon points="252.56,717.6 239.21,728.94 245.38,709.14 241.56,704.65 219.17,723.66 223.31,728.55 236.27,717.55 
			230.44,736.94 234.33,741.52 256.72,722.5 		"/>
		<polygon points="229.16,687.7 224.34,691.22 230.13,699.16 225.24,702.73 219.44,694.79 214.69,698.25 220.49,706.2 
			216.03,709.45 210.24,701.5 205.42,705.01 215.03,718.19 238.76,700.88 		"/>
		<polygon points="204.99,693.62 224.73,681.01 221.23,675.53 201.49,688.13 198.61,683.62 193.59,686.83 202.85,701.33 
			207.87,698.12 		"/>
		<path d="M216.31,667.64l-6.27,1l-4.84-8.6l4.09-4.87l-3.43-6.09l-20.1,24.2l2.68,4.76l31.2-4.46L216.31,667.64z M200.85,665
			l2.65,4.71l-7.68,1.19L200.85,665z"/>
		<path d="M202.81,642.26l-10.7,5.02l7.9-10.96l-3.32-7.07l-7.07,11.29c-1.25-1.48-2.79-2.44-4.58-2.86
			c-1.99-0.47-4.06-0.21-6.15,0.76c-1.73,0.81-3.06,1.94-3.97,3.35c-0.91,1.41-1.38,3.08-1.37,4.95c0.01,0.86,0.18,1.82,0.5,2.88
			c0.32,1.03,0.94,2.54,1.86,4.5l3.07,6.55l26.6-12.48L202.81,642.26z M180.6,650.93c-0.83-1.77-1.14-3.21-0.93-4.29
			c0.2-1.04,0.9-1.82,2.13-2.4c0.62-0.29,1.21-0.44,1.78-0.44c0.6,0,1.18,0.16,1.74,0.49c1.14,0.66,2.17,1.97,3.08,3.91l0.32,0.68
			l-7.45,3.49L180.6,650.93z"/>
		<polygon points="194.01,622.27 191.65,616.19 181.76,620.03 161.17,618.88 163.76,625.54 176.05,625.64 167.07,634.06 
			169.68,640.75 184.13,626.11 		"/>
		<polygon points="182.56,588.81 165,593.45 181.06,582.86 179.87,578.13 160.7,576.43 178.36,572.16 176.79,565.9 148.3,573.08 
			150.3,581.01 171.06,582.86 153.65,594.33 155.65,602.27 184.14,595.09 		"/>
		<polygon points="173.53,545.34 167.64,546.3 169.23,556.01 163.25,556.99 161.66,547.28 155.86,548.23 157.44,557.94 152,558.83 
			150.42,549.12 144.53,550.09 147.17,566.18 176.16,561.43 		"/>
		<polygon points="149.31,539.73 172.61,537.33 171.94,530.85 148.64,533.26 148.1,527.94 142.17,528.55 143.93,545.66 
			149.86,545.05 		"/>
		<path d="M171.14,521.66l-6.04-1.95l-0.42-9.86l5.85-2.49l-0.29-6.98l-28.88,12.47l0.23,5.46l29.83,10.15L171.14,521.66z
			 M158.78,517.7l-7.39-2.42l7.16-2.97L158.78,517.7z"/>
		<polygon points="170.83,483.95 164.87,483.8 164.66,492.72 141.25,492.16 141.1,498.63 170.47,499.33 		"/>
		<path d="M150.41,479.75c2.04,0.17,3.8-0.26,5.25-1.28c1.42-1.01,2.6-2.65,3.5-4.86c0.08-0.19,0.19-0.45,0.32-0.79
			c0.93-2.35,2.17-3.43,3.77-3.3c1.02,0.08,1.78,0.42,2.31,1.03c0.53,0.61,0.75,1.38,0.67,2.37c-0.08,0.9-0.43,1.57-1.09,2.05
			c-0.68,0.5-1.54,0.7-2.62,0.6l-0.89-0.07l-0.48,6.03l0.49,0.03c0.35,0.02,0.69,0.04,1.03,0.04c2.48,0,4.59-0.66,6.29-1.96
			c1.94-1.49,3.04-3.6,3.26-6.26c0.23-2.81-0.52-5.18-2.25-7.04c-1.71-1.85-4.11-2.92-7.14-3.17c-2.01-0.16-3.75,0.19-5.14,1.07
			c-1.39,0.87-2.52,2.32-3.38,4.29c-0.18,0.42-0.41,1.02-0.68,1.77c-0.75,2.01-1.36,2.78-1.74,3.07c-0.23,0.17-0.47,0.29-0.73,0.36
			c-0.28,0.07-0.6,0.09-0.96,0.06c-0.85-0.07-1.51-0.35-1.95-0.83c-0.44-0.47-0.62-1.08-0.55-1.85c0.06-0.75,0.34-1.32,0.84-1.74
			c0.51-0.42,1.13-0.59,1.92-0.52l0.71,0.06l0.5-6.01l-0.51-0.01c-2.69-0.06-4.89,0.57-6.52,1.88c-1.64,1.32-2.58,3.22-2.78,5.64
			c-0.21,2.58,0.48,4.75,2.05,6.45C145.45,478.55,147.64,479.52,150.41,479.75z"/>
	</g>
	<g>
		<circle class="st6" cx="513.24" cy="560.45" r="0.48"/>
		<circle class="st6" cx="514.5" cy="560.45" r="0.48"/>
		<circle class="st6" cx="515.75" cy="560.45" r="0.48"/>
		<circle class="st6" cx="517.01" cy="560.45" r="0.48"/>
		<circle class="st6" cx="518.27" cy="560.45" r="0.48"/>
		<circle class="st6" cx="519.52" cy="560.45" r="0.48"/>
		<circle class="st6" cx="520.78" cy="560.45" r="0.48"/>
		<circle class="st6" cx="513.24" cy="561.72" r="0.48"/>
		<circle class="st6" cx="514.5" cy="561.72" r="0.48"/>
		<circle class="st6" cx="515.75" cy="561.72" r="0.48"/>
		<circle class="st6" cx="517.01" cy="561.72" r="0.48"/>
		<circle class="st6" cx="518.27" cy="561.72" r="0.48"/>
		<circle class="st6" cx="519.52" cy="561.72" r="0.48"/>
		<circle class="st6" cx="520.78" cy="561.72" r="0.48"/>
		<circle class="st6" cx="513.24" cy="562.98" r="0.48"/>
		<circle class="st6" cx="514.5" cy="562.98" r="0.48"/>
		<circle class="st6" cx="515.75" cy="562.98" r="0.48"/>
		<circle class="st6" cx="517.01" cy="562.98" r="0.48"/>
		<circle class="st6" cx="518.27" cy="562.98" r="0.48"/>
		<circle class="st6" cx="519.52" cy="562.98" r="0.48"/>
		<circle class="st6" cx="520.78" cy="562.98" r="0.48"/>
		<circle class="st6" cx="513.24" cy="564.25" r="0.48"/>
		<circle class="st6" cx="514.5" cy="564.25" r="0.48"/>
		<circle class="st6" cx="515.75" cy="564.25" r="0.48"/>
		<circle class="st6" cx="517.01" cy="564.25" r="0.48"/>
		<circle class="st6" cx="518.27" cy="564.25" r="0.48"/>
		<circle class="st6" cx="519.52" cy="564.25" r="0.48"/>
		<circle class="st6" cx="520.78" cy="564.25" r="0.48"/>
		<circle class="st6" cx="513.24" cy="565.52" r="0.48"/>
		<circle class="st6" cx="514.5" cy="565.52" r="0.48"/>
		<circle class="st6" cx="515.75" cy="565.52" r="0.48"/>
		<circle class="st6" cx="517.01" cy="565.52" r="0.48"/>
		<circle class="st6" cx="518.27" cy="565.52" r="0.48"/>
		<circle class="st6" cx="519.52" cy="565.52" r="0.48"/>
		<circle class="st6" cx="520.78" cy="565.52" r="0.48"/>
		<circle class="st6" cx="513.24" cy="566.79" r="0.48"/>
		<circle class="st6" cx="514.5" cy="566.79" r="0.48"/>
		<circle class="st6" cx="515.75" cy="566.79" r="0.48"/>
		<circle class="st6" cx="517.01" cy="566.79" r="0.48"/>
		<circle class="st6" cx="518.27" cy="566.79" r="0.48"/>
		<circle class="st6" cx="519.52" cy="566.79" r="0.48"/>
		<circle class="st6" cx="520.78" cy="566.79" r="0.48"/>
		<circle class="st6" cx="513.24" cy="568.06" r="0.48"/>
		<circle class="st6" cx="514.5" cy="568.06" r="0.48"/>
		<circle class="st6" cx="515.75" cy="568.06" r="0.48"/>
		<circle class="st6" cx="517.01" cy="568.06" r="0.48"/>
		<circle class="st6" cx="518.27" cy="568.06" r="0.48"/>
		<circle class="st6" cx="519.52" cy="568.06" r="0.48"/>
		<circle class="st6" cx="520.78" cy="568.06" r="0.48"/>
		<circle class="st6" cx="513.24" cy="569.32" r="0.48"/>
		<circle class="st6" cx="514.5" cy="569.32" r="0.48"/>
		<circle class="st6" cx="515.75" cy="569.32" r="0.48"/>
		<circle class="st6" cx="517.01" cy="569.32" r="0.48"/>
		<circle class="st6" cx="518.27" cy="569.32" r="0.48"/>
		<circle class="st6" cx="519.52" cy="569.32" r="0.48"/>
		<circle class="st6" cx="520.78" cy="569.32" r="0.48"/>
	</g>
	<line class="st5" x1="532.51" y1="554.18" x2="536.3" y2="554.18"/>
	<line class="st5" x1="532.51" y1="556.01" x2="536.3" y2="556.01"/>
	<line class="st5" x1="532.51" y1="557.84" x2="536.3" y2="557.84"/>
	<line class="st5" x1="532.51" y1="559.68" x2="536.3" y2="559.68"/>
	<line class="st5" x1="532.51" y1="561.51" x2="536.3" y2="561.51"/>
	<line class="st5" x1="532.51" y1="563.34" x2="536.3" y2="563.34"/>
	<line class="st5" x1="532.51" y1="565.17" x2="536.3" y2="565.17"/>
	<line class="st5" x1="532.51" y1="567.01" x2="536.3" y2="567.01"/>
	<line class="st5" x1="532.51" y1="568.84" x2="536.3" y2="568.84"/>
	<line class="st5" x1="532.51" y1="570.67" x2="536.3" y2="570.67"/>
	<line class="st5" x1="532.51" y1="572.5" x2="536.3" y2="572.5"/>
	<line class="st5" x1="501.33" y1="551" x2="505.12" y2="551"/>
	<line class="st5" x1="501.33" y1="561.51" x2="505.12" y2="561.51"/>
	<circle cx="752.38" cy="577.15" r="5.17"/>
	<circle cx="865.5" cy="469.73" r="5.17"/>
	<circle cx="865.5" cy="483.81" r="5.17"/>
	<circle cx="865.5" cy="496.89" r="5.17"/>
	<circle cx="865.5" cy="511.98" r="5.17"/>
	<circle cx="865.5" cy="527.19" r="5.17"/>
	<circle cx="865.5" cy="539.34" r="5.17"/>
	<circle cx="864" cy="551" r="5.17"/>
	<circle cx="861.33" cy="566.11" r="5.17"/>
	<polyline class="st3" points="876.17,539.22 776.15,539.22 757.27,561.09 	"/>
	<circle cx="757.27" cy="561.09" r="5.08"/>
	<line class="st3" x1="757.27" y1="561.09" x2="752.38" y2="577.15"/>
	<rect x="361.74" y="535.85" width="17.72" height="7.92"/>
	<rect x="361.74" y="547.9" width="17.72" height="7.92"/>
	<rect x="361.74" y="559.95" width="17.72" height="7.92"/>
	<rect x="361.74" y="572" width="17.72" height="7.92"/>
	<rect x="361.74" y="584.05" width="17.72" height="7.92"/>
	
		<rect x="337.49" y="477.57" transform="matrix(-1.836970e-16 1 -1 -1.836970e-16 830.1588 137.4613)" width="17.72" height="12.47"/>
	
		<rect x="341.45" y="474.12" transform="matrix(-1.836970e-16 1 -1 -1.836970e-16 830.6622 130.0443)" width="17.72" height="12.47"/>
	
		<rect x="364.37" y="425.99" transform="matrix(-1 -1.224647e-16 1.224647e-16 -1 746.4581 858.9273)" width="17.72" height="6.96"/>
	
		<rect x="364.37" y="437.23" transform="matrix(-1 -1.224647e-16 1.224647e-16 -1 746.4581 881.4168)" width="17.72" height="6.96"/>
	
		<rect x="364.37" y="448.48" transform="matrix(-1 -1.224647e-16 1.224647e-16 -1 746.4581 903.9063)" width="17.72" height="6.96"/>
	<rect x="306.11" y="531.77" width="3.88" height="3.88"/>
	<line class="st7" x1="356.54" y1="539.81" x2="383.79" y2="539.81"/>
	<line class="st7" x1="356.54" y1="551.92" x2="383.79" y2="551.92"/>
	<line class="st7" x1="356.54" y1="564.03" x2="383.79" y2="564.03"/>
	<line class="st7" x1="356.54" y1="576.14" x2="383.79" y2="576.14"/>
	<line class="st7" x1="356.54" y1="588.25" x2="383.79" y2="588.25"/>
	<rect x="499.6" y="757.57" transform="matrix(0.9977 -0.0682 0.0682 0.9977 -50.8251 36.9748)" width="33.26" height="10.91"/>
	<rect x="499.6" y="771.31" transform="matrix(0.9977 -0.0682 0.0682 0.9977 -51.7619 37.0068)" width="33.26" height="10.91"/>
	<path d="M683.96,475.13L683.96,475.13c-2.61,0.52-5.16-1.19-5.68-3.79l-4.39-21.98c-0.52-2.61,1.19-5.16,3.79-5.68v0
		c2.61-0.52,5.16,1.19,5.68,3.79l4.39,21.98C688.27,472.05,686.56,474.61,683.96,475.13z"/>
	<path d="M697.51,475.13L697.51,475.13c-2.61,0.52-5.16-1.19-5.68-3.79l-4.39-21.98c-0.52-2.61,1.19-5.16,3.79-5.68v0
		c2.61-0.52,5.16,1.19,5.68,3.79l4.39,21.98C701.82,472.05,700.12,474.61,697.51,475.13z"/>
	<g>
		<path d="M649.98,493.98h-5.53c-2.69,0-4.89-2.2-4.89-4.89l0,0c0-2.69,2.2-4.89,4.89-4.89h5.53c2.69,0,4.89,2.2,4.89,4.89l0,0
			C654.88,491.77,652.67,493.98,649.98,493.98z"/>
	</g>
	<g>
		<path d="M649.98,479.82h-5.53c-2.69,0-4.89-2.2-4.89-4.89l0,0c0-2.69,2.2-4.89,4.89-4.89h5.53c2.69,0,4.89,2.2,4.89,4.89l0,0
			C654.88,477.62,652.67,479.82,649.98,479.82z"/>
	</g>
	<g>
		<path d="M649.98,465.71h-5.53c-2.69,0-4.89-2.2-4.89-4.89v0c0-2.69,2.2-4.89,4.89-4.89h5.53c2.69,0,4.89,2.2,4.89,4.89v0
			C654.88,463.5,652.67,465.71,649.98,465.71z"/>
	</g>
	<g>
		<line class="st8" x1="638.08" y1="462.92" x2="656.36" y2="462.92"/>
		<line class="st8" x1="638.08" y1="458.71" x2="656.36" y2="458.71"/>
	</g>
	<g>
		<line class="st8" x1="638.08" y1="477.05" x2="656.36" y2="477.05"/>
		<line class="st8" x1="638.08" y1="472.84" x2="656.36" y2="472.84"/>
	</g>
	<g>
		<line class="st8" x1="638.08" y1="491.19" x2="656.36" y2="491.19"/>
		<line class="st8" x1="638.08" y1="486.98" x2="656.36" y2="486.98"/>
	</g>
	<circle cx="356.54" cy="429.06" r="3.73"/>
	<circle cx="356.54" cy="440.76" r="3.73"/>
	<circle cx="356.54" cy="452.36" r="3.73"/>
	<line class="st3" x1="823.87" y1="582.32" x2="866.67" y2="582.32"/>
	<line class="st3" x1="814.98" y1="591.21" x2="857.77" y2="591.21"/>
	<line class="st3" x1="833.87" y1="452.92" x2="876.67" y2="452.92"/>
	<line class="st3" x1="824.98" y1="444.03" x2="867.77" y2="444.03"/>
	<polygon points="722.81,399.04 714.66,399.04 710.59,406.09 714.66,413.15 722.81,413.15 726.88,406.09 	"/>
	<polygon points="745.46,428.74 739,428.74 735.77,434.33 739,439.93 745.46,439.93 748.69,434.33 	"/>
	<polygon class="st6" points="721.26,401.71 716.21,401.71 713.68,406.09 716.21,410.47 721.26,410.47 723.79,406.09 	"/>
	<polygon class="st6" points="744.21,430.9 740.25,430.9 738.27,434.33 740.25,437.76 744.21,437.76 746.19,434.33 	"/>
</g>
</svg>
